<svg width="69" height="20" viewBox="0 0 69 20" fill="none" xmlns="http://www.w3.org/2000/svg">
<rect width="69" height="20" fill="#3CAF47" fill-opacity="0.12"/>
<g clip-path="url(#clip0_2900_84553)">
<path d="M12 5C9.24 5 7 7.24 7 10C7 12.76 9.24 15 12 15C14.76 15 17 12.76 17 10C17 7.24 14.76 5 12 5ZM10.645 12.145L8.85 10.35C8.655 10.155 8.655 9.84 8.85 9.645C9.045 9.45 9.36 9.45 9.555 9.645L11 11.085L14.44 7.645C14.635 7.45 14.95 7.45 15.145 7.645C15.34 7.84 15.34 8.155 15.145 8.35L11.35 12.145C11.16 12.34 10.84 12.34 10.645 12.145Z" fill="#579A58"/>
</g>
<path d="M26.97 12.67H24.19L23.73 14H22.26L24.77 7.01H26.4L28.91 14H27.43L26.97 12.67ZM26.59 11.55L25.58 8.63L24.57 11.55H26.59ZM29.4882 11.23C29.4882 10.6567 29.6049 10.1567 29.8382 9.73C30.0715 9.29667 30.3949 8.96333 30.8082 8.73C31.2215 8.49 31.6949 8.37 32.2282 8.37C32.9149 8.37 33.4815 8.54333 33.9282 8.89C34.3815 9.23 34.6849 9.71 34.8382 10.33H33.3282C33.2482 10.09 33.1115 9.90333 32.9182 9.77C32.7315 9.63 32.4982 9.56 32.2182 9.56C31.8182 9.56 31.5015 9.70667 31.2682 10C31.0349 10.2867 30.9182 10.6967 30.9182 11.23C30.9182 11.7567 31.0349 12.1667 31.2682 12.46C31.5015 12.7467 31.8182 12.89 32.2182 12.89C32.7849 12.89 33.1549 12.6367 33.3282 12.13H34.8382C34.6849 12.73 34.3815 13.2067 33.9282 13.56C33.4749 13.9133 32.9082 14.09 32.2282 14.09C31.6949 14.09 31.2215 13.9733 30.8082 13.74C30.3949 13.5 30.0715 13.1667 29.8382 12.74C29.6049 12.3067 29.4882 11.8033 29.4882 11.23ZM37.4938 9.61V12.29C37.4938 12.4767 37.5372 12.6133 37.6238 12.7C37.7172 12.78 37.8705 12.82 38.0838 12.82H38.7338V14H37.8538C36.6738 14 36.0838 13.4267 36.0838 12.28V9.61H35.4238V8.46H36.0838V7.09H37.4938V8.46H38.7338V9.61H37.4938ZM40.4508 7.8C40.2041 7.8 39.9974 7.72333 39.8308 7.57C39.6708 7.41 39.5908 7.21333 39.5908 6.98C39.5908 6.74667 39.6708 6.55333 39.8308 6.4C39.9974 6.24 40.2041 6.16 40.4508 6.16C40.6974 6.16 40.9008 6.24 41.0608 6.4C41.2274 6.55333 41.3108 6.74667 41.3108 6.98C41.3108 7.21333 41.2274 7.41 41.0608 7.57C40.9008 7.72333 40.6974 7.8 40.4508 7.8ZM41.1408 8.46V14H39.7408V8.46H41.1408ZM44.834 12.71L46.234 8.46H47.724L45.674 14H43.974L41.934 8.46H43.434L44.834 12.71ZM53.6603 11.11C53.6603 11.31 53.647 11.49 53.6203 11.65H49.5703C49.6036 12.05 49.7436 12.3633 49.9903 12.59C50.237 12.8167 50.5403 12.93 50.9003 12.93C51.4203 12.93 51.7903 12.7067 52.0103 12.26H53.5203C53.3603 12.7933 53.0536 13.2333 52.6003 13.58C52.147 13.92 51.5903 14.09 50.9303 14.09C50.397 14.09 49.917 13.9733 49.4903 13.74C49.0703 13.5 48.7403 13.1633 48.5003 12.73C48.267 12.2967 48.1503 11.7967 48.1503 11.23C48.1503 10.6567 48.267 10.1533 48.5003 9.72C48.7336 9.28667 49.0603 8.95333 49.4803 8.72C49.9003 8.48667 50.3836 8.37 50.9303 8.37C51.457 8.37 51.927 8.48333 52.3403 8.71C52.7603 8.93667 53.0836 9.26 53.3103 9.68C53.5436 10.0933 53.6603 10.57 53.6603 11.11ZM52.2103 10.71C52.2036 10.35 52.0736 10.0633 51.8203 9.85C51.567 9.63 51.257 9.52 50.8903 9.52C50.5436 9.52 50.2503 9.62667 50.0103 9.84C49.777 10.0467 49.6336 10.3367 49.5803 10.71H52.2103Z" fill="#50A719"/>
<defs>
<clipPath id="clip0_2900_84553">
<rect width="12" height="12" fill="white" transform="translate(6 4)"/>
</clipPath>
</defs>
</svg>
