<svg width="185" height="19" viewBox="0 0 185 19" fill="none" xmlns="http://www.w3.org/2000/svg">
<path d="M26.2614 15H24.3977L28.5852 3.36364H30.6136L34.8011 15H32.9375L29.6477 5.47727H29.5568L26.2614 15ZM26.5739 10.4432H32.6193V11.9205H26.5739V10.4432ZM39.4716 15.1705C38.767 15.1705 38.1383 14.9905 37.5852 14.6307C37.036 14.267 36.6042 13.75 36.2898 13.0795C35.9792 12.4053 35.8239 11.5966 35.8239 10.6534C35.8239 9.71023 35.9811 8.90341 36.2955 8.23295C36.6136 7.5625 37.0492 7.04924 37.6023 6.69318C38.1553 6.33712 38.7822 6.15909 39.483 6.15909C40.0246 6.15909 40.4602 6.25 40.7898 6.43182C41.1231 6.60985 41.3807 6.81818 41.5625 7.05682C41.7481 7.29545 41.892 7.50568 41.9943 7.6875H42.0966V3.36364H43.7955V15H42.1364V13.642H41.9943C41.892 13.8277 41.7443 14.0398 41.5511 14.2784C41.3617 14.517 41.1004 14.7254 40.767 14.9034C40.4337 15.0814 40.0019 15.1705 39.4716 15.1705ZM39.8466 13.7216C40.3352 13.7216 40.7481 13.5928 41.0852 13.3352C41.4261 13.0739 41.6837 12.7121 41.858 12.25C42.036 11.7879 42.125 11.25 42.125 10.6364C42.125 10.0303 42.0379 9.5 41.8636 9.04545C41.6894 8.59091 41.4337 8.23674 41.0966 7.98295C40.7595 7.72917 40.3428 7.60227 39.8466 7.60227C39.3352 7.60227 38.9091 7.73485 38.5682 8C38.2273 8.26515 37.9697 8.62689 37.7955 9.08523C37.625 9.54356 37.5398 10.0606 37.5398 10.6364C37.5398 11.2197 37.6269 11.7443 37.8011 12.2102C37.9754 12.6761 38.233 13.0455 38.5739 13.3182C38.9186 13.5871 39.3428 13.7216 39.8466 13.7216ZM49.4872 15.1705C48.7827 15.1705 48.1539 14.9905 47.6009 14.6307C47.0516 14.267 46.6198 13.75 46.3054 13.0795C45.9948 12.4053 45.8395 11.5966 45.8395 10.6534C45.8395 9.71023 45.9967 8.90341 46.3111 8.23295C46.6293 7.5625 47.0649 7.04924 47.6179 6.69318C48.1709 6.33712 48.7978 6.15909 49.4986 6.15909C50.0402 6.15909 50.4759 6.25 50.8054 6.43182C51.1387 6.60985 51.3963 6.81818 51.5781 7.05682C51.7637 7.29545 51.9077 7.50568 52.0099 7.6875H52.1122V3.36364H53.8111V15H52.152V13.642H52.0099C51.9077 13.8277 51.7599 14.0398 51.5668 14.2784C51.3774 14.517 51.116 14.7254 50.7827 14.9034C50.4493 15.0814 50.0175 15.1705 49.4872 15.1705ZM49.8622 13.7216C50.3509 13.7216 50.7637 13.5928 51.1009 13.3352C51.4418 13.0739 51.6993 12.7121 51.8736 12.25C52.0516 11.7879 52.1406 11.25 52.1406 10.6364C52.1406 10.0303 52.0535 9.5 51.8793 9.04545C51.705 8.59091 51.4493 8.23674 51.1122 7.98295C50.7751 7.72917 50.3584 7.60227 49.8622 7.60227C49.3509 7.60227 48.9247 7.73485 48.5838 8C48.2429 8.26515 47.9853 8.62689 47.8111 9.08523C47.6406 9.54356 47.5554 10.0606 47.5554 10.6364C47.5554 11.2197 47.6425 11.7443 47.8168 12.2102C47.991 12.6761 48.2486 13.0455 48.5895 13.3182C48.9342 13.5871 49.3584 13.7216 49.8622 13.7216ZM63.0099 15.1932C62.4569 15.1932 61.9569 15.0909 61.5099 14.8864C61.063 14.678 60.7088 14.3769 60.4474 13.983C60.1899 13.589 60.0611 13.1061 60.0611 12.5341C60.0611 12.0417 60.1558 11.6364 60.3452 11.3182C60.5346 11 60.7902 10.7481 61.1122 10.5625C61.4342 10.3769 61.794 10.2367 62.1918 10.142C62.5895 10.0473 62.9948 9.97538 63.4077 9.92614C63.9304 9.86553 64.3546 9.81629 64.6804 9.77841C65.0062 9.73674 65.2429 9.67045 65.3906 9.57955C65.5384 9.48864 65.6122 9.34091 65.6122 9.13636V9.09659C65.6122 8.60038 65.4721 8.21591 65.1918 7.94318C64.9152 7.67045 64.5024 7.53409 63.9531 7.53409C63.3812 7.53409 62.9304 7.66098 62.6009 7.91477C62.2751 8.16477 62.0497 8.44318 61.9247 8.75L60.3281 8.38636C60.5175 7.85606 60.794 7.42803 61.1577 7.10227C61.5251 6.77273 61.9474 6.53409 62.4247 6.38636C62.902 6.23485 63.4039 6.15909 63.9304 6.15909C64.2789 6.15909 64.6482 6.20076 65.0384 6.28409C65.4323 6.36364 65.7997 6.51136 66.1406 6.72727C66.4853 6.94318 66.7675 7.25189 66.9872 7.65341C67.2069 8.05114 67.3168 8.56818 67.3168 9.20455V15H65.6577V13.8068H65.5895C65.4796 14.0265 65.3149 14.2424 65.0952 14.4545C64.8755 14.6667 64.5933 14.8428 64.2486 14.983C63.9039 15.1231 63.491 15.1932 63.0099 15.1932ZM63.3793 13.8295C63.849 13.8295 64.2505 13.7367 64.5838 13.5511C64.9209 13.3655 65.1766 13.1231 65.3509 12.8239C65.5289 12.5208 65.6179 12.197 65.6179 11.8523V10.7273C65.5573 10.7879 65.4399 10.8447 65.2656 10.8977C65.0952 10.947 64.9001 10.9905 64.6804 11.0284C64.4607 11.0625 64.2467 11.0947 64.0384 11.125C63.83 11.1515 63.6558 11.1742 63.5156 11.1932C63.1861 11.2348 62.8849 11.3049 62.6122 11.4034C62.3433 11.5019 62.1274 11.6439 61.9645 11.8295C61.8054 12.0114 61.7259 12.2538 61.7259 12.5568C61.7259 12.9773 61.8812 13.2955 62.1918 13.5114C62.5024 13.7235 62.8982 13.8295 63.3793 13.8295ZM71.2784 9.81818V15H69.5795V6.27273H71.2102V7.69318H71.3182C71.5189 7.23106 71.8333 6.85985 72.2614 6.57955C72.6932 6.29924 73.2367 6.15909 73.892 6.15909C74.4867 6.15909 75.0076 6.28409 75.4545 6.53409C75.9015 6.7803 76.2481 7.14773 76.4943 7.63636C76.7405 8.125 76.8636 8.72917 76.8636 9.44886V15H75.1648V9.65341C75.1648 9.02083 75 8.52652 74.6705 8.17045C74.3409 7.81061 73.8883 7.63068 73.3125 7.63068C72.9186 7.63068 72.5682 7.71591 72.2614 7.88636C71.9583 8.05682 71.7178 8.30682 71.5398 8.63636C71.3655 8.96212 71.2784 9.35606 71.2784 9.81818ZM82.8182 15.1761C82 15.1761 81.286 14.9886 80.6761 14.6136C80.0663 14.2386 79.5928 13.714 79.2557 13.0398C78.9186 12.3655 78.75 11.5777 78.75 10.6761C78.75 9.77083 78.9186 8.97917 79.2557 8.30114C79.5928 7.62311 80.0663 7.09659 80.6761 6.72159C81.286 6.34659 82 6.15909 82.8182 6.15909C83.6364 6.15909 84.3504 6.34659 84.9602 6.72159C85.5701 7.09659 86.0436 7.62311 86.3807 8.30114C86.7178 8.97917 86.8864 9.77083 86.8864 10.6761C86.8864 11.5777 86.7178 12.3655 86.3807 13.0398C86.0436 13.714 85.5701 14.2386 84.9602 14.6136C84.3504 14.9886 83.6364 15.1761 82.8182 15.1761ZM82.8239 13.75C83.3542 13.75 83.7936 13.6098 84.142 13.3295C84.4905 13.0492 84.7481 12.6761 84.9148 12.2102C85.0852 11.7443 85.1705 11.2311 85.1705 10.6705C85.1705 10.1136 85.0852 9.60227 84.9148 9.13636C84.7481 8.66667 84.4905 8.28977 84.142 8.00568C83.7936 7.72159 83.3542 7.57955 82.8239 7.57955C82.2898 7.57955 81.8466 7.72159 81.4943 8.00568C81.1458 8.28977 80.8864 8.66667 80.7159 9.13636C80.5492 9.60227 80.4659 10.1136 80.4659 10.6705C80.4659 11.2311 80.5492 11.7443 80.7159 12.2102C80.8864 12.6761 81.1458 13.0492 81.4943 13.3295C81.8466 13.6098 82.2898 13.75 82.8239 13.75ZM92.8565 6.27273V7.63636H88.0895V6.27273H92.8565ZM89.3679 4.18182H91.0668V12.4375C91.0668 12.767 91.116 13.0152 91.2145 13.1818C91.313 13.3447 91.4399 13.4564 91.5952 13.517C91.7543 13.5739 91.9266 13.6023 92.1122 13.6023C92.2486 13.6023 92.3679 13.5928 92.4702 13.5739C92.5724 13.5549 92.652 13.5398 92.7088 13.5284L93.0156 14.9318C92.9171 14.9697 92.777 15.0076 92.5952 15.0455C92.4134 15.0871 92.1861 15.1098 91.9134 15.1136C91.4664 15.1212 91.0497 15.0417 90.6634 14.875C90.277 14.7083 89.9645 14.4508 89.7259 14.1023C89.4872 13.7538 89.3679 13.3163 89.3679 12.7898V4.18182ZM96.6222 9.81818V15H94.9233V3.36364H96.5994V7.69318H96.7074C96.9119 7.22348 97.2244 6.85038 97.6449 6.57386C98.0653 6.29735 98.6146 6.15909 99.2926 6.15909C99.8911 6.15909 100.414 6.2822 100.861 6.52841C101.312 6.77462 101.66 7.14205 101.906 7.63068C102.156 8.11553 102.281 8.72159 102.281 9.44886V15H100.582V9.65341C100.582 9.01326 100.418 8.51705 100.088 8.16477C99.7585 7.80871 99.3002 7.63068 98.7131 7.63068C98.3116 7.63068 97.9517 7.71591 97.6335 7.88636C97.3191 8.05682 97.071 8.30682 96.8892 8.63636C96.7112 8.96212 96.6222 9.35606 96.6222 9.81818ZM108.31 15.1761C107.45 15.1761 106.709 14.9924 106.088 14.625C105.471 14.2538 104.993 13.733 104.656 13.0625C104.323 12.3883 104.156 11.5985 104.156 10.6932C104.156 9.79924 104.323 9.01136 104.656 8.32955C104.993 7.64773 105.463 7.11553 106.065 6.73295C106.671 6.35038 107.38 6.15909 108.19 6.15909C108.683 6.15909 109.16 6.24053 109.622 6.40341C110.084 6.56629 110.499 6.82197 110.866 7.17045C111.234 7.51894 111.524 7.97159 111.736 8.52841C111.948 9.08144 112.054 9.75379 112.054 10.5455V11.1477H105.116V9.875H110.389C110.389 9.42803 110.298 9.0322 110.116 8.6875C109.935 8.33902 109.679 8.06439 109.349 7.86364C109.024 7.66288 108.641 7.5625 108.202 7.5625C107.724 7.5625 107.308 7.67992 106.952 7.91477C106.599 8.14583 106.327 8.44886 106.134 8.82386C105.944 9.19508 105.849 9.59848 105.849 10.0341V11.0284C105.849 11.6117 105.952 12.108 106.156 12.517C106.365 12.9261 106.654 13.2386 107.026 13.4545C107.397 13.6667 107.83 13.7727 108.327 13.7727C108.649 13.7727 108.942 13.7273 109.207 13.6364C109.473 13.5417 109.702 13.4015 109.895 13.2159C110.088 13.0303 110.236 12.8011 110.338 12.5284L111.946 12.8182C111.817 13.2917 111.586 13.7064 111.253 14.0625C110.923 14.4148 110.509 14.6894 110.009 14.8864C109.512 15.0795 108.946 15.1761 108.31 15.1761ZM113.939 15V6.27273H115.581V7.65909H115.672C115.831 7.18939 116.111 6.82008 116.513 6.55114C116.918 6.27841 117.376 6.14205 117.888 6.14205C117.994 6.14205 118.119 6.14583 118.263 6.15341C118.411 6.16098 118.526 6.17045 118.609 6.18182V7.80682C118.541 7.78788 118.42 7.76705 118.246 7.74432C118.071 7.7178 117.897 7.70455 117.723 7.70455C117.321 7.70455 116.964 7.78977 116.649 7.96023C116.339 8.12689 116.092 8.35985 115.911 8.65909C115.729 8.95455 115.638 9.29167 115.638 9.67045V15H113.939ZM126.854 15.1932C126.301 15.1932 125.801 15.0909 125.354 14.8864C124.907 14.678 124.553 14.3769 124.291 13.983C124.034 13.589 123.905 13.1061 123.905 12.5341C123.905 12.0417 124 11.6364 124.189 11.3182C124.378 11 124.634 10.7481 124.956 10.5625C125.278 10.3769 125.638 10.2367 126.036 10.142C126.433 10.0473 126.839 9.97538 127.251 9.92614C127.774 9.86553 128.198 9.81629 128.524 9.77841C128.85 9.73674 129.087 9.67045 129.234 9.57955C129.382 9.48864 129.456 9.34091 129.456 9.13636V9.09659C129.456 8.60038 129.316 8.21591 129.036 7.94318C128.759 7.67045 128.346 7.53409 127.797 7.53409C127.225 7.53409 126.774 7.66098 126.445 7.91477C126.119 8.16477 125.893 8.44318 125.768 8.75L124.172 8.38636C124.361 7.85606 124.638 7.42803 125.001 7.10227C125.369 6.77273 125.791 6.53409 126.268 6.38636C126.746 6.23485 127.248 6.15909 127.774 6.15909C128.123 6.15909 128.492 6.20076 128.882 6.28409C129.276 6.36364 129.643 6.51136 129.984 6.72727C130.329 6.94318 130.611 7.25189 130.831 7.65341C131.051 8.05114 131.161 8.56818 131.161 9.20455V15H129.501V13.8068H129.433C129.323 14.0265 129.159 14.2424 128.939 14.4545C128.719 14.6667 128.437 14.8428 128.092 14.983C127.748 15.1231 127.335 15.1932 126.854 15.1932ZM127.223 13.8295C127.693 13.8295 128.094 13.7367 128.428 13.5511C128.765 13.3655 129.02 13.1231 129.195 12.8239C129.373 12.5208 129.462 12.197 129.462 11.8523V10.7273C129.401 10.7879 129.284 10.8447 129.109 10.8977C128.939 10.947 128.744 10.9905 128.524 11.0284C128.304 11.0625 128.09 11.0947 127.882 11.125C127.674 11.1515 127.5 11.1742 127.359 11.1932C127.03 11.2348 126.729 11.3049 126.456 11.4034C126.187 11.5019 125.971 11.6439 125.808 11.8295C125.649 12.0114 125.57 12.2538 125.57 12.5568C125.57 12.9773 125.725 13.2955 126.036 13.5114C126.346 13.7235 126.742 13.8295 127.223 13.8295ZM136.69 15.1705C135.986 15.1705 135.357 14.9905 134.804 14.6307C134.255 14.267 133.823 13.75 133.509 13.0795C133.198 12.4053 133.043 11.5966 133.043 10.6534C133.043 9.71023 133.2 8.90341 133.514 8.23295C133.832 7.5625 134.268 7.04924 134.821 6.69318C135.374 6.33712 136.001 6.15909 136.702 6.15909C137.243 6.15909 137.679 6.25 138.009 6.43182C138.342 6.60985 138.599 6.81818 138.781 7.05682C138.967 7.29545 139.111 7.50568 139.213 7.6875H139.315V3.36364H141.014V15H139.355V13.642H139.213C139.111 13.8277 138.963 14.0398 138.77 14.2784C138.58 14.517 138.319 14.7254 137.986 14.9034C137.652 15.0814 137.221 15.1705 136.69 15.1705ZM137.065 13.7216C137.554 13.7216 137.967 13.5928 138.304 13.3352C138.645 13.0739 138.902 12.7121 139.077 12.25C139.255 11.7879 139.344 11.25 139.344 10.6364C139.344 10.0303 139.257 9.5 139.082 9.04545C138.908 8.59091 138.652 8.23674 138.315 7.98295C137.978 7.72917 137.562 7.60227 137.065 7.60227C136.554 7.60227 136.128 7.73485 135.787 8C135.446 8.26515 135.188 8.62689 135.014 9.08523C134.844 9.54356 134.759 10.0606 134.759 10.6364C134.759 11.2197 134.846 11.7443 135.02 12.2102C135.194 12.6761 135.452 13.0455 135.793 13.3182C136.137 13.5871 136.562 13.7216 137.065 13.7216ZM146.706 15.1705C146.001 15.1705 145.373 14.9905 144.82 14.6307C144.27 14.267 143.839 13.75 143.524 13.0795C143.214 12.4053 143.058 11.5966 143.058 10.6534C143.058 9.71023 143.215 8.90341 143.53 8.23295C143.848 7.5625 144.284 7.04924 144.837 6.69318C145.39 6.33712 146.017 6.15909 146.717 6.15909C147.259 6.15909 147.695 6.25 148.024 6.43182C148.357 6.60985 148.615 6.81818 148.797 7.05682C148.982 7.29545 149.126 7.50568 149.229 7.6875H149.331V3.36364H151.03V15H149.371V13.642H149.229C149.126 13.8277 148.979 14.0398 148.786 14.2784C148.596 14.517 148.335 14.7254 148.001 14.9034C147.668 15.0814 147.236 15.1705 146.706 15.1705ZM147.081 13.7216C147.57 13.7216 147.982 13.5928 148.32 13.3352C148.661 13.0739 148.918 12.7121 149.092 12.25C149.27 11.7879 149.359 11.25 149.359 10.6364C149.359 10.0303 149.272 9.5 149.098 9.04545C148.924 8.59091 148.668 8.23674 148.331 7.98295C147.994 7.72917 147.577 7.60227 147.081 7.60227C146.57 7.60227 146.143 7.73485 145.803 8C145.462 8.26515 145.204 8.62689 145.03 9.08523C144.859 9.54356 144.774 10.0606 144.774 10.6364C144.774 11.2197 144.861 11.7443 145.036 12.2102C145.21 12.6761 145.467 13.0455 145.808 13.3182C146.153 13.5871 146.577 13.7216 147.081 13.7216ZM153.455 15V6.27273H155.097V7.65909H155.188C155.347 7.18939 155.627 6.82008 156.028 6.55114C156.434 6.27841 156.892 6.14205 157.403 6.14205C157.509 6.14205 157.634 6.14583 157.778 6.15341C157.926 6.16098 158.042 6.17045 158.125 6.18182V7.80682C158.057 7.78788 157.936 7.76705 157.761 7.74432C157.587 7.7178 157.413 7.70455 157.239 7.70455C156.837 7.70455 156.479 7.78977 156.165 7.96023C155.854 8.12689 155.608 8.35985 155.426 8.65909C155.244 8.95455 155.153 9.29167 155.153 9.67045V15H153.455ZM163.044 15.1761C162.184 15.1761 161.444 14.9924 160.822 14.625C160.205 14.2538 159.728 13.733 159.391 13.0625C159.057 12.3883 158.891 11.5985 158.891 10.6932C158.891 9.79924 159.057 9.01136 159.391 8.32955C159.728 7.64773 160.197 7.11553 160.8 6.73295C161.406 6.35038 162.114 6.15909 162.925 6.15909C163.417 6.15909 163.894 6.24053 164.357 6.40341C164.819 6.56629 165.233 6.82197 165.601 7.17045C165.968 7.51894 166.258 7.97159 166.47 8.52841C166.682 9.08144 166.788 9.75379 166.788 10.5455V11.1477H159.851V9.875H165.124C165.124 9.42803 165.033 9.0322 164.851 8.6875C164.669 8.33902 164.413 8.06439 164.084 7.86364C163.758 7.66288 163.375 7.5625 162.936 7.5625C162.459 7.5625 162.042 7.67992 161.686 7.91477C161.334 8.14583 161.061 8.44886 160.868 8.82386C160.679 9.19508 160.584 9.59848 160.584 10.0341V11.0284C160.584 11.6117 160.686 12.108 160.891 12.517C161.099 12.9261 161.389 13.2386 161.76 13.4545C162.131 13.6667 162.565 13.7727 163.061 13.7727C163.383 13.7727 163.677 13.7273 163.942 13.6364C164.207 13.5417 164.436 13.4015 164.629 13.2159C164.822 13.0303 164.97 12.8011 165.072 12.5284L166.68 12.8182C166.552 13.2917 166.321 13.7064 165.987 14.0625C165.658 14.4148 165.243 14.6894 164.743 14.8864C164.247 15.0795 163.68 15.1761 163.044 15.1761ZM175.213 8.40341L173.673 8.67614C173.609 8.47917 173.507 8.29167 173.366 8.11364C173.23 7.93561 173.045 7.78977 172.81 7.67614C172.575 7.5625 172.281 7.50568 171.929 7.50568C171.448 7.50568 171.046 7.61364 170.724 7.82955C170.402 8.04167 170.241 8.31629 170.241 8.65341C170.241 8.94508 170.349 9.17992 170.565 9.35795C170.781 9.53598 171.13 9.68182 171.611 9.79545L172.997 10.1136C173.8 10.2992 174.399 10.5852 174.793 10.9716C175.187 11.358 175.384 11.8598 175.384 12.4773C175.384 13 175.232 13.4659 174.929 13.875C174.63 14.2803 174.211 14.5985 173.673 14.8295C173.139 15.0606 172.52 15.1761 171.815 15.1761C170.838 15.1761 170.041 14.9678 169.423 14.5511C168.806 14.1307 168.427 13.5341 168.287 12.7614L169.929 12.5114C170.031 12.9394 170.241 13.2633 170.56 13.483C170.878 13.6989 171.293 13.8068 171.804 13.8068C172.361 13.8068 172.806 13.6913 173.139 13.4602C173.473 13.2254 173.639 12.9394 173.639 12.6023C173.639 12.3295 173.537 12.1004 173.332 11.9148C173.132 11.7292 172.823 11.589 172.406 11.4943L170.929 11.1705C170.115 10.9848 169.512 10.6894 169.122 10.2841C168.736 9.87879 168.543 9.36553 168.543 8.74432C168.543 8.22917 168.687 7.77841 168.974 7.39205C169.262 7.00568 169.66 6.70455 170.168 6.48864C170.675 6.26894 171.257 6.15909 171.912 6.15909C172.855 6.15909 173.598 6.36364 174.139 6.77273C174.681 7.17803 175.039 7.72159 175.213 8.40341ZM183.791 8.40341L182.251 8.67614C182.187 8.47917 182.085 8.29167 181.945 8.11364C181.808 7.93561 181.623 7.78977 181.388 7.67614C181.153 7.5625 180.859 7.50568 180.507 7.50568C180.026 7.50568 179.625 7.61364 179.303 7.82955C178.981 8.04167 178.82 8.31629 178.82 8.65341C178.82 8.94508 178.928 9.17992 179.143 9.35795C179.359 9.53598 179.708 9.68182 180.189 9.79545L181.575 10.1136C182.378 10.2992 182.977 10.5852 183.371 10.9716C183.765 11.358 183.962 11.8598 183.962 12.4773C183.962 13 183.81 13.4659 183.507 13.875C183.208 14.2803 182.789 14.5985 182.251 14.8295C181.717 15.0606 181.098 15.1761 180.393 15.1761C179.416 15.1761 178.619 14.9678 178.001 14.5511C177.384 14.1307 177.005 13.5341 176.865 12.7614L178.507 12.5114C178.609 12.9394 178.82 13.2633 179.138 13.483C179.456 13.6989 179.871 13.8068 180.382 13.8068C180.939 13.8068 181.384 13.6913 181.717 13.4602C182.051 13.2254 182.217 12.9394 182.217 12.6023C182.217 12.3295 182.115 12.1004 181.911 11.9148C181.71 11.7292 181.401 11.589 180.984 11.4943L179.507 11.1705C178.693 10.9848 178.09 10.6894 177.7 10.2841C177.314 9.87879 177.121 9.36553 177.121 8.74432C177.121 8.22917 177.265 7.77841 177.553 7.39205C177.84 7.00568 178.238 6.70455 178.746 6.48864C179.253 6.26894 179.835 6.15909 180.49 6.15909C181.433 6.15909 182.176 6.36364 182.717 6.77273C183.259 7.17803 183.617 7.72159 183.791 8.40341Z" fill="#822B23"/>
<g clip-path="url(#clip0_1644_114917)">
<path d="M2.5 10H13.5" stroke="#283891" stroke-width="1.5" stroke-linecap="round" stroke-linejoin="round"/>
<path d="M8 4.5V15.5" stroke="#822B23" stroke-width="1.5" stroke-linecap="round" stroke-linejoin="round"/>
</g>
<defs>
<clipPath id="clip0_1644_114917">
<rect width="16" height="16" fill="white" transform="translate(0 2)"/>
</clipPath>
</defs>
</svg>
