<svg width="111" height="100" viewBox="0 0 111 100" fill="none" xmlns="http://www.w3.org/2000/svg">
<path d="M18.5 37.5C18.5 25.7149 18.5 19.8223 22.5639 16.1612C26.6278 12.5 33.1685 12.5 46.25 12.5H64.75C77.8315 12.5 84.3722 12.5 88.4361 16.1612C92.5 19.8223 92.5 25.7149 92.5 37.5V65.9484C92.5 77.1287 92.5 82.7189 88.5951 84.4287C84.6903 86.1386 79.8111 82.6848 70.0527 75.7773L66.9297 73.5667C61.4427 69.6827 58.6992 67.7408 55.5 67.7408C52.3008 67.7408 49.5573 69.6828 44.0703 73.5667L40.9473 75.7774C31.1889 82.6848 26.3097 86.1386 22.4049 84.4287C18.5 82.7189 18.5 77.1287 18.5 65.9484V37.5Z" fill="#F8F8FA" stroke="#822B23" stroke-opacity="0.13" stroke-width="5"/>
</svg>
