<svg width="109" height="35" viewBox="0 0 109 35" fill="none" xmlns="http://www.w3.org/2000/svg">
<rect x="0.5" y="0.5" width="108" height="34" rx="1.5" stroke="#822B23"/>
<path d="M49.9148 12.8182H51.1477V19.5597C51.1477 20.2557 50.9837 20.8771 50.6555 21.424C50.3307 21.9676 49.8717 22.3968 49.2784 22.7116C48.6851 23.0232 47.9891 23.179 47.1903 23.179C46.3916 23.179 45.6955 23.0232 45.1023 22.7116C44.509 22.3968 44.0483 21.9676 43.7202 21.424C43.3954 20.8771 43.233 20.2557 43.233 19.5597V12.8182H44.4659V19.4602C44.4659 19.9574 44.5753 20.3999 44.794 20.7876C45.0128 21.1721 45.3243 21.4754 45.7287 21.6974C46.1364 21.9162 46.6236 22.0256 47.1903 22.0256C47.7571 22.0256 48.2443 21.9162 48.652 21.6974C49.0597 21.4754 49.3712 21.1721 49.5866 20.7876C49.8054 20.3999 49.9148 19.9574 49.9148 19.4602V12.8182ZM53.4508 25.8636V15.3636H54.5843V16.5767H54.7235C54.8097 16.4441 54.929 16.2751 55.0815 16.0696C55.2373 15.8608 55.4593 15.6752 55.7477 15.5128C56.0394 15.3471 56.4338 15.2642 56.9309 15.2642C57.5739 15.2642 58.1407 15.425 58.6312 15.7464C59.1217 16.0679 59.5046 16.5237 59.7797 17.1136C60.0547 17.7036 60.1923 18.3996 60.1923 19.2017C60.1923 20.0104 60.0547 20.7114 59.7797 21.3047C59.5046 21.8946 59.1234 22.352 58.6362 22.6768C58.149 22.9983 57.5872 23.1591 56.9508 23.1591C56.4603 23.1591 56.0675 23.0779 55.7725 22.9155C55.4776 22.7498 55.2505 22.5625 55.0914 22.3537C54.9324 22.1416 54.8097 21.9659 54.7235 21.8267H54.6241V25.8636H53.4508ZM54.6042 19.1818C54.6042 19.7585 54.6887 20.2673 54.8578 20.7081C55.0268 21.1456 55.2737 21.4886 55.5985 21.7372C55.9234 21.9825 56.3211 22.1051 56.7917 22.1051C57.2823 22.1051 57.6916 21.9759 58.0197 21.7173C58.3511 21.4555 58.5997 21.1042 58.7654 20.6634C58.9345 20.2192 59.019 19.7254 59.019 19.1818C59.019 18.6449 58.9361 18.161 58.7704 17.7301C58.608 17.2959 58.3611 16.9529 58.0297 16.701C57.7015 16.4458 57.2889 16.3182 56.7917 16.3182C56.3145 16.3182 55.9134 16.4392 55.5886 16.6811C55.2638 16.9197 55.0185 17.2545 54.8528 17.6854C54.6871 18.1129 54.6042 18.6117 54.6042 19.1818ZM63.1554 12.8182V23H61.9821V12.8182H63.1554ZM68.4066 23.1591C67.7172 23.1591 67.1123 22.995 66.592 22.6669C66.0749 22.3388 65.6706 21.8797 65.3789 21.2898C65.0906 20.6998 64.9464 20.0104 64.9464 19.2216C64.9464 18.4261 65.0906 17.7318 65.3789 17.1385C65.6706 16.5452 66.0749 16.0845 66.592 15.7564C67.1123 15.4283 67.7172 15.2642 68.4066 15.2642C69.096 15.2642 69.6992 15.4283 70.2163 15.7564C70.7366 16.0845 71.141 16.5452 71.4293 17.1385C71.721 17.7318 71.8668 18.4261 71.8668 19.2216C71.8668 20.0104 71.721 20.6998 71.4293 21.2898C71.141 21.8797 70.7366 22.3388 70.2163 22.6669C69.6992 22.995 69.096 23.1591 68.4066 23.1591ZM68.4066 22.1051C68.9303 22.1051 69.3612 21.9709 69.6992 21.7024C70.0373 21.4339 70.2875 21.081 70.4499 20.6435C70.6123 20.206 70.6935 19.732 70.6935 19.2216C70.6935 18.7112 70.6123 18.2356 70.4499 17.7947C70.2875 17.3539 70.0373 16.9976 69.6992 16.7259C69.3612 16.4541 68.9303 16.3182 68.4066 16.3182C67.8829 16.3182 67.4521 16.4541 67.114 16.7259C66.7759 16.9976 66.5257 17.3539 66.3633 17.7947C66.2009 18.2356 66.1197 18.7112 66.1197 19.2216C66.1197 19.732 66.2009 20.206 66.3633 20.6435C66.5257 21.081 66.7759 21.4339 67.114 21.7024C67.4521 21.9709 67.8829 22.1051 68.4066 22.1051ZM75.905 23.179C75.4211 23.179 74.9819 23.0878 74.5875 22.9055C74.1931 22.7199 73.8799 22.4531 73.6479 22.1051C73.4159 21.7538 73.2999 21.3295 73.2999 20.8324C73.2999 20.3949 73.3861 20.0402 73.5584 19.7685C73.7308 19.4934 73.9611 19.2779 74.2495 19.1222C74.5378 18.9664 74.856 18.8504 75.204 18.7741C75.5553 18.6946 75.9083 18.6316 76.263 18.5852C76.727 18.5256 77.1032 18.4808 77.3915 18.451C77.6832 18.4179 77.8953 18.3632 78.0279 18.2869C78.1638 18.2107 78.2317 18.0781 78.2317 17.8892V17.8494C78.2317 17.3589 78.0975 16.9777 77.829 16.706C77.5639 16.4342 77.1612 16.2983 76.6209 16.2983C76.0608 16.2983 75.6216 16.4209 75.3034 16.6662C74.9853 16.9115 74.7615 17.1733 74.6323 17.4517L73.5186 17.054C73.7175 16.59 73.9827 16.2287 74.3141 15.9702C74.6489 15.7083 75.0134 15.526 75.4078 15.4233C75.8056 15.3172 76.1967 15.2642 76.5811 15.2642C76.8264 15.2642 77.1081 15.294 77.4263 15.3537C77.7478 15.41 78.0577 15.5277 78.356 15.7067C78.6576 15.8857 78.9078 16.1558 79.1067 16.517C79.3056 16.8783 79.405 17.3622 79.405 17.9688V23H78.2317V21.9659H78.1721C78.0925 22.1316 77.9599 22.3089 77.7743 22.4979C77.5887 22.6868 77.3418 22.8475 77.0336 22.9801C76.7253 23.1127 76.3491 23.179 75.905 23.179ZM76.084 22.125C76.548 22.125 76.9391 22.0339 77.2573 21.8516C77.5788 21.6693 77.8207 21.4339 77.9831 21.1456C78.1489 20.8572 78.2317 20.554 78.2317 20.2358V19.1619C78.182 19.2216 78.0726 19.2763 77.9036 19.326C77.7379 19.3724 77.5456 19.4138 77.3269 19.4503C77.1114 19.4834 76.901 19.5133 76.6955 19.5398C76.4933 19.563 76.3292 19.5829 76.2033 19.5994C75.8984 19.6392 75.6133 19.7038 75.3482 19.7933C75.0864 19.8795 74.8742 20.0104 74.7118 20.1861C74.5527 20.3584 74.4732 20.5937 74.4732 20.892C74.4732 21.2997 74.624 21.608 74.9256 21.8168C75.2305 22.0223 75.6167 22.125 76.084 22.125ZM84.43 23.1591C83.7937 23.1591 83.2319 22.9983 82.7447 22.6768C82.2575 22.352 81.8763 21.8946 81.6012 21.3047C81.3261 20.7114 81.1886 20.0104 81.1886 19.2017C81.1886 18.3996 81.3261 17.7036 81.6012 17.1136C81.8763 16.5237 82.2591 16.0679 82.7496 15.7464C83.2402 15.425 83.8069 15.2642 84.4499 15.2642C84.9471 15.2642 85.3398 15.3471 85.6282 15.5128C85.9199 15.6752 86.1419 15.8608 86.2944 16.0696C86.4502 16.2751 86.5711 16.4441 86.6573 16.5767H86.7567V12.8182H87.93V23H86.7965V21.8267H86.6573C86.5711 21.9659 86.4485 22.1416 86.2894 22.3537C86.1303 22.5625 85.9033 22.7498 85.6083 22.9155C85.3133 23.0779 84.9206 23.1591 84.43 23.1591ZM84.5891 22.1051C85.0598 22.1051 85.4575 21.9825 85.7823 21.7372C86.1071 21.4886 86.354 21.1456 86.5231 20.7081C86.6921 20.2673 86.7766 19.7585 86.7766 19.1818C86.7766 18.6117 86.6938 18.1129 86.5281 17.6854C86.3623 17.2545 86.1171 16.9197 85.7923 16.6811C85.4674 16.4392 85.0664 16.3182 84.5891 16.3182C84.092 16.3182 83.6777 16.4458 83.3462 16.701C83.0181 16.9529 82.7712 17.2959 82.6055 17.7301C82.4431 18.161 82.3619 18.6449 82.3619 19.1818C82.3619 19.7254 82.4447 20.2192 82.6104 20.6634C82.7795 21.1042 83.0281 21.4555 83.3562 21.7173C83.6876 21.9759 84.0986 22.1051 84.5891 22.1051Z" fill="#822B23"/>
<path d="M23.4375 10.9375C23.4375 10.4189 23.0186 10 22.5 10C21.9814 10 21.5625 10.4189 21.5625 10.9375V18.0479L19.4121 15.8975C19.0459 15.5312 18.4512 15.5312 18.085 15.8975C17.7188 16.2637 17.7188 16.8584 18.085 17.2246L21.835 20.9746C22.2012 21.3408 22.7959 21.3408 23.1621 20.9746L26.9121 17.2246C27.2783 16.8584 27.2783 16.2637 26.9121 15.8975C26.5459 15.5312 25.9512 15.5312 25.585 15.8975L23.4375 18.0479V10.9375ZM16.875 20.3125C15.8408 20.3125 15 21.1533 15 22.1875V23.125C15 24.1592 15.8408 25 16.875 25H28.125C29.1592 25 30 24.1592 30 23.125V22.1875C30 21.1533 29.1592 20.3125 28.125 20.3125H25.1514L23.8242 21.6396C23.0918 22.3721 21.9053 22.3721 21.1729 21.6396L19.8486 20.3125H16.875ZM27.6562 21.9531C27.8427 21.9531 28.0216 22.0272 28.1534 22.1591C28.2853 22.2909 28.3594 22.4698 28.3594 22.6562C28.3594 22.8427 28.2853 23.0216 28.1534 23.1534C28.0216 23.2853 27.8427 23.3594 27.6562 23.3594C27.4698 23.3594 27.2909 23.2853 27.1591 23.1534C27.0272 23.0216 26.9531 22.8427 26.9531 22.6562C26.9531 22.4698 27.0272 22.2909 27.1591 22.1591C27.2909 22.0272 27.4698 21.9531 27.6562 21.9531Z" fill="#822B23"/>
</svg>
