<svg width="20" height="20" viewBox="0 0 20 20" fill="none" xmlns="http://www.w3.org/2000/svg">
<g clip-path="url(#clip0_2403_2467)">
<path fill-rule="evenodd" clip-rule="evenodd" d="M6 0H13.7C17.0137 0 19.7 2.68629 19.7 6V13.7C19.7 17.0137 17.0137 19.7 13.7 19.7H6C2.68629 19.7 0 17.0137 0 13.7V6C0 2.68629 2.68629 0 6 0ZM18.2 6C18.1945 3.517 16.183 1.5055 13.7 1.5H6C3.517 1.5055 1.5055 3.517 1.5 6V13.7C1.5055 16.183 3.517 18.1945 6 18.2H13.7C16.183 18.1945 18.1945 16.183 18.2 13.7V6Z" fill="#D5DFE6"/>
<path fill-rule="evenodd" clip-rule="evenodd" d="M5.5498 9.85005C5.5553 7.47751 7.47726 5.55555 9.8498 5.55005C12.2223 5.55555 14.1443 7.47751 14.1498 9.85005C14.1498 12.2248 12.2246 14.15 9.8498 14.15C7.47498 14.15 5.5498 12.2248 5.5498 9.85005ZM12.6498 9.85005C12.6498 8.30365 11.3962 7.05005 9.8498 7.05005C8.30568 7.05554 7.05529 8.30593 7.0498 9.85005C7.0498 11.3964 8.3034 12.65 9.8498 12.65C11.3962 12.65 12.6498 11.3964 12.6498 9.85005Z" fill="#D5DFE6"/>
<path d="M13.5098 4.50504C13.5098 3.90581 13.9956 3.42004 14.5948 3.42004C15.194 3.42004 15.6798 3.90581 15.6798 4.50504C15.6798 5.10427 15.194 5.59004 14.5948 5.59004C13.9956 5.59004 13.5098 5.10427 13.5098 4.50504Z" fill="#D5DFE6"/>
</g>
<defs>
<clipPath id="clip0_2403_2467">
<rect width="20" height="20" fill="white"/>
</clipPath>
</defs>
</svg>
