<svg width="14" height="15" viewBox="0 0 14 15" fill="none" xmlns="http://www.w3.org/2000/svg">
<path d="M2.8125 0.9375V1.875H1.40625C0.629883 1.875 0 2.50488 0 3.28125V4.6875H13.125V3.28125C13.125 2.50488 12.4951 1.875 11.7188 1.875H10.3125V0.9375C10.3125 0.418945 9.89355 0 9.375 0C8.85645 0 8.4375 0.418945 8.4375 0.9375V1.875H4.6875V0.9375C4.6875 0.418945 4.26855 0 3.75 0C3.23145 0 2.8125 0.418945 2.8125 0.9375ZM13.125 5.625H0V13.5938C0 14.3701 0.629883 15 1.40625 15H11.7188C12.4951 15 13.125 14.3701 13.125 13.5938V5.625Z" fill="#822B23"/>
</svg>
