<svg width="18" height="18" viewBox="0 0 18 18" fill="none" xmlns="http://www.w3.org/2000/svg">
<g clip-path="url(#clip0_1637_88787)">
<path d="M9 9.84375C9.46599 9.84375 9.84375 9.46599 9.84375 9C9.84375 8.53401 9.46599 8.15625 9 8.15625C8.53401 8.15625 8.15625 8.53401 8.15625 9C8.15625 9.46599 8.53401 9.84375 9 9.84375Z" fill="#161616"/>
<path d="M9 5.34375C9.46599 5.34375 9.84375 4.96599 9.84375 4.5C9.84375 4.03401 9.46599 3.65625 9 3.65625C8.53401 3.65625 8.15625 4.03401 8.15625 4.5C8.15625 4.96599 8.53401 5.34375 9 5.34375Z" fill="#161616"/>
<path d="M9 14.3438C9.46599 14.3438 9.84375 13.966 9.84375 13.5C9.84375 13.034 9.46599 12.6562 9 12.6562C8.53401 12.6562 8.15625 13.034 8.15625 13.5C8.15625 13.966 8.53401 14.3438 9 14.3438Z" fill="#161616"/>
</g>
<defs>
<clipPath id="clip0_1637_88787">
<rect width="18" height="18" fill="white"/>
</clipPath>
</defs>
</svg>
