<svg width="23" height="24" viewBox="0 0 23 24" fill="none" xmlns="http://www.w3.org/2000/svg">
<g clip-path="url(#clip0_1631_87748)">
<path d="M21.1369 14.4405L19.7982 12.2132C19.502 11.7275 19.2413 10.7915 19.2413 10.2229V8.00743C19.2413 3.70686 15.7464 0.211914 11.4577 0.211914C7.15711 0.223761 3.66216 3.70686 3.66216 8.00743V10.211C3.66216 10.7797 3.40152 11.7156 3.11718 12.2014L1.77844 14.4287C1.26901 15.2935 1.15053 16.2768 1.47041 17.1298C1.79029 17.9947 2.51297 18.6818 3.46075 18.9899C4.74026 19.4164 6.03162 19.7244 7.34667 19.9495C7.47699 19.9732 7.60731 19.985 7.73763 20.0087C7.90349 20.0324 8.0812 20.0561 8.25891 20.0798C8.56694 20.1272 8.87497 20.1628 9.19484 20.1864C9.94122 20.2575 10.6994 20.2931 11.4577 20.2931C12.2041 20.2931 12.9504 20.2575 13.685 20.1864C13.9575 20.1628 14.2299 20.1391 14.4906 20.1035C14.7038 20.0798 14.9171 20.0561 15.1303 20.0206C15.2607 20.0087 15.391 19.985 15.5213 19.9613C16.8482 19.7481 18.1632 19.4164 19.4428 18.9899C20.355 18.6818 21.054 17.9947 21.3857 17.118C21.7174 16.2295 21.6227 15.258 21.1369 14.4405ZM12.3225 9.63051C12.3225 10.1281 11.9197 10.5309 11.4221 10.5309C10.9245 10.5309 10.5217 10.1281 10.5217 9.63051V5.95785C10.5217 5.46026 10.9245 5.05746 11.4221 5.05746C11.9197 5.05746 12.3225 5.46026 12.3225 5.95785V9.63051Z" fill="#D5DFE6"/>
<path d="M14.7865 21.4896C14.2889 22.8639 12.9739 23.8472 11.4337 23.8472C10.4978 23.8472 9.57368 23.4681 8.92208 22.7928C8.54297 22.4374 8.25864 21.9635 8.09277 21.4778C8.24679 21.5015 8.4008 21.5133 8.56666 21.537C8.83915 21.5726 9.12349 21.6081 9.40782 21.6318C10.0831 21.691 10.7703 21.7266 11.4574 21.7266C12.1327 21.7266 12.808 21.691 13.4714 21.6318C13.7202 21.6081 13.969 21.5963 14.206 21.5607C14.3955 21.537 14.5851 21.5133 14.7865 21.4896Z" fill="#D5DFE6"/>
</g>
<defs>
<clipPath id="clip0_1631_87748">
<rect width="23" height="24" fill="white"/>
</clipPath>
</defs>
</svg>
