<svg width="80" height="21" viewBox="0 0 80 21" fill="none" xmlns="http://www.w3.org/2000/svg">
<path d="M24.8401 14.9114H23.6753L26.2925 7.63865H27.5603L30.1775 14.9114H29.0127L26.9566 8.95967H26.8998L24.8401 14.9114ZM25.0354 12.0634H28.8138V12.9867H25.0354V12.0634ZM33.3522 15.0215C32.8242 15.0215 32.3697 14.9019 31.9885 14.6628C31.6098 14.4213 31.3186 14.0887 31.115 13.6649C30.9114 13.2412 30.8096 12.7558 30.8096 12.209C30.8096 11.655 30.9137 11.1661 31.1221 10.7423C31.3304 10.3162 31.624 9.98358 32.0028 9.74447C32.3815 9.50536 32.8278 9.38581 33.3415 9.38581C33.7558 9.38581 34.1251 9.46275 34.4495 9.61663C34.7738 9.76815 35.0354 9.98122 35.2343 10.2558C35.4355 10.5305 35.5551 10.8512 35.593 11.2182H34.5596C34.5028 10.9625 34.3725 10.7423 34.1689 10.5577C33.9677 10.373 33.6978 10.2807 33.3593 10.2807C33.0634 10.2807 32.8041 10.3588 32.5816 10.5151C32.3614 10.669 32.1898 10.8891 32.0667 11.1756C31.9436 11.4597 31.882 11.7958 31.882 12.1841C31.882 12.5818 31.9424 12.9251 32.0631 13.2139C32.1839 13.5028 32.3543 13.7265 32.5745 13.8851C32.797 14.0437 33.0586 14.123 33.3593 14.123C33.5605 14.123 33.7428 14.0863 33.9062 14.0129C34.0719 13.9372 34.2104 13.8295 34.3216 13.6898C34.4353 13.5501 34.5146 13.382 34.5596 13.1855H35.593C35.5551 13.5383 35.4403 13.8531 35.2485 14.1301C35.0567 14.4071 34.7999 14.6249 34.4779 14.7835C34.1583 14.9422 33.7831 15.0215 33.3522 15.0215ZM39.2746 9.45683V10.3091H36.2952V9.45683H39.2746ZM37.0942 8.15001H38.156V13.3098C38.156 13.5158 38.1868 13.6708 38.2483 13.775C38.3099 13.8768 38.3892 13.9467 38.4862 13.9845C38.5857 14.02 38.6934 14.0378 38.8094 14.0378C38.8946 14.0378 38.9692 14.0319 39.0331 14.02C39.097 14.0082 39.1468 13.9987 39.1823 13.9916L39.374 14.8688C39.3125 14.8924 39.2249 14.9161 39.1112 14.9398C38.9976 14.9658 38.8556 14.98 38.6851 14.9824C38.4057 14.9871 38.1453 14.9374 37.9039 14.8333C37.6624 14.7291 37.4671 14.5681 37.3179 14.3503C37.1688 14.1325 37.0942 13.8591 37.0942 13.53V8.15001ZM40.4491 14.9114V9.45683H41.5109V14.9114H40.4491ZM40.9854 8.61521C40.8007 8.61521 40.6421 8.55366 40.5095 8.43055C40.3793 8.30508 40.3142 8.15593 40.3142 7.98311C40.3142 7.80792 40.3793 7.65877 40.5095 7.53567C40.6421 7.41019 40.8007 7.34746 40.9854 7.34746C41.17 7.34746 41.3274 7.41019 41.4577 7.53567C41.5902 7.65877 41.6565 7.80792 41.6565 7.98311C41.6565 8.15593 41.5902 8.30508 41.4577 8.43055C41.3274 8.55366 41.17 8.61521 40.9854 8.61521ZM47.6056 9.45683L45.6276 14.9114H44.4912L42.5097 9.45683H43.6496L45.031 13.6543H45.0878L46.4656 9.45683H47.6056ZM50.7687 15.0215C50.2313 15.0215 49.7685 14.9066 49.3802 14.677C48.9943 14.445 48.6961 14.1195 48.4854 13.7004C48.277 13.279 48.1729 12.7854 48.1729 12.2196C48.1729 11.6609 48.277 11.1685 48.4854 10.7423C48.6961 10.3162 48.9896 9.98358 49.366 9.74447C49.7448 9.50536 50.1875 9.38581 50.6942 9.38581C51.0019 9.38581 51.3002 9.43671 51.589 9.53851C51.8779 9.64031 52.1371 9.80011 52.3667 10.0179C52.5964 10.2357 52.7775 10.5186 52.9101 10.8666C53.0426 11.2123 53.1089 11.6325 53.1089 12.1273V12.5037H48.773V11.7083H52.0684C52.0684 11.4289 52.0116 11.1815 51.898 10.9661C51.7844 10.7483 51.6246 10.5766 51.4186 10.4511C51.215 10.3257 50.9759 10.2629 50.7013 10.2629C50.403 10.2629 50.1425 10.3363 49.92 10.4831C49.6998 10.6275 49.5294 10.8169 49.4086 11.0513C49.2903 11.2833 49.2311 11.5354 49.2311 11.8077V12.4291C49.2311 12.7937 49.295 13.1038 49.4229 13.3595C49.5531 13.6152 49.7342 13.8105 49.9662 13.9455C50.1982 14.078 50.4693 14.1443 50.7794 14.1443C50.9806 14.1443 51.1641 14.1159 51.3298 14.0591C51.4955 13.9999 51.6388 13.9123 51.7595 13.7963C51.8802 13.6803 51.9726 13.5371 52.0365 13.3666L53.0415 13.5477C52.961 13.8437 52.8166 14.1029 52.6082 14.3254C52.4023 14.5456 52.143 14.7172 51.8305 14.8404C51.5204 14.9611 51.1665 15.0215 50.7687 15.0215Z" fill="#50A719"/>
<rect y="0.911377" width="80" height="20" rx="2" fill="#3CAF47" fill-opacity="0.12"/>
</svg>
