<svg width="30" height="30" viewBox="0 0 30 30" fill="none" xmlns="http://www.w3.org/2000/svg">
<path d="M25.0508 8.52498L17.8508 3.48748C15.8883 2.11248 12.8758 2.18748 10.9883 3.64998L4.72578 8.53748C3.47578 9.51248 2.48828 11.5125 2.48828 13.0875V21.7125C2.48828 24.9 5.07578 27.5 8.26328 27.5H21.7383C24.9258 27.5 27.5133 24.9125 27.5133 21.725V13.25C27.5133 11.5625 26.4258 9.48748 25.0508 8.52498ZM15.9383 22.5C15.9383 23.0125 15.5133 23.4375 15.0008 23.4375C14.4883 23.4375 14.0633 23.0125 14.0633 22.5V18.75C14.0633 18.2375 14.4883 17.8125 15.0008 17.8125C15.5133 17.8125 15.9383 18.2375 15.9383 18.75V22.5Z" fill="#822B23" fill-opacity="0.13"/>
</svg>
