<svg width="98" height="98" viewBox="0 0 98 98" fill="none" xmlns="http://www.w3.org/2000/svg">
<path d="M84.1985 34.5042C79.911 15.6392 63.4551 7.14587 49.0001 7.14587C49.0001 7.14587 49.0001 7.14587 48.9593 7.14587C34.5451 7.14587 18.0485 15.5984 13.761 34.4634C8.98348 55.5334 21.8868 73.3775 33.5651 84.6067C37.8935 88.7717 43.4468 90.8542 49.0001 90.8542C54.5535 90.8542 60.1068 88.7717 64.3943 84.6067C76.0727 73.3775 88.976 55.5742 84.1985 34.5042ZM49.0001 54.9617C41.8951 54.9617 36.1376 49.2042 36.1376 42.0992C36.1376 34.9942 41.8951 29.2367 49.0001 29.2367C56.1051 29.2367 61.8626 34.9942 61.8626 42.0992C61.8626 49.2042 56.1051 54.9617 49.0001 54.9617Z" fill="#822B23"/>
</svg>
