<svg width="24" height="24" viewBox="0 0 24 24" fill="none" xmlns="http://www.w3.org/2000/svg">
<path d="M20.6198 8.7C19.5798 4.07 15.5398 2 11.9998 2C11.9998 2 11.9998 2 11.9897 2C8.45975 2 4.42975 4.07 3.37975 8.69C2.19975 13.85 5.35975 18.22 8.21975 20.98C9.27975 22 10.6398 22.51 11.9998 22.51C13.3597 22.51 14.7198 22 15.7698 20.98C18.6298 18.22 21.7898 13.86 20.6198 8.7ZM15.2797 9.53L11.2797 13.53C11.1298 13.68 10.9398 13.75 10.7498 13.75C10.5598 13.75 10.3698 13.68 10.2198 13.53L8.71975 12.03C8.42975 11.74 8.42975 11.26 8.71975 10.97C9.00975 10.68 9.48975 10.68 9.77975 10.97L10.7498 11.94L14.2198 8.47C14.5098 8.18 14.9897 8.18 15.2797 8.47C15.5697 8.76 15.5697 9.24 15.2797 9.53Z" fill="#822B23"/>
</svg>
