<svg width="183" height="183" viewBox="0 0 183 183" fill="none" xmlns="http://www.w3.org/2000/svg">
<path d="M129.198 75.5042C124.911 56.6392 108.455 48.1459 94.0001 48.1459C94.0001 48.1459 94.0001 48.1459 93.9593 48.1459C79.5451 48.1459 63.0485 56.5984 58.761 75.4634C53.9835 96.5334 66.8868 114.378 78.5651 125.607C82.8935 129.772 88.4468 131.854 94.0001 131.854C99.5535 131.854 105.107 129.772 109.394 125.607C121.073 114.378 133.976 96.5742 129.198 75.5042ZM94.0001 95.9617C86.8951 95.9617 81.1376 90.2042 81.1376 83.0992C81.1376 75.9942 86.8951 70.2367 94.0001 70.2367C101.105 70.2367 106.863 75.9942 106.863 83.0992C106.863 90.2042 101.105 95.9617 94.0001 95.9617Z" fill="#822B23"/>
<circle cx="91.5" cy="91.5" r="91.5" fill="#822B23" fill-opacity="0.1"/>
</svg>
