<svg width="30" height="30" viewBox="0 0 30 30" fill="none" xmlns="http://www.w3.org/2000/svg">
<path d="M20.2375 2.5H9.7625C5.2125 2.5 2.5 5.2125 2.5 9.7625V20.225C2.5 24.7875 5.2125 27.5 9.7625 27.5H20.225C24.775 27.5 27.4875 24.7875 27.4875 20.2375V9.7625C27.5 5.2125 24.7875 2.5 20.2375 2.5ZM21.25 21.5625H8.75C8.2375 21.5625 7.8125 21.1375 7.8125 20.625C7.8125 20.1125 8.2375 19.6875 8.75 19.6875H21.25C21.7625 19.6875 22.1875 20.1125 22.1875 20.625C22.1875 21.1375 21.7625 21.5625 21.25 21.5625ZM21.25 15.9375H8.75C8.2375 15.9375 7.8125 15.5125 7.8125 15C7.8125 14.4875 8.2375 14.0625 8.75 14.0625H21.25C21.7625 14.0625 22.1875 14.4875 22.1875 15C22.1875 15.5125 21.7625 15.9375 21.25 15.9375ZM21.25 10.3125H8.75C8.2375 10.3125 7.8125 9.8875 7.8125 9.375C7.8125 8.8625 8.2375 8.4375 8.75 8.4375H21.25C21.7625 8.4375 22.1875 8.8625 22.1875 9.375C22.1875 9.8875 21.7625 10.3125 21.25 10.3125Z" fill="#822B23" fill-opacity="0.13"/>
</svg>
