<svg width="25" height="24" viewBox="0 0 25 24" fill="none" xmlns="http://www.w3.org/2000/svg">
<g clip-path="url(#clip0_1632_87848)">
<path d="M18.2375 -0.5H7.7625C3.2125 -0.5 0.5 2.2125 0.5 6.7625V17.225C0.5 21.7875 3.2125 24.5 7.7625 24.5H18.225C22.775 24.5 25.4875 21.7875 25.4875 17.2375V6.7625C25.5 2.2125 22.7875 -0.5 18.2375 -0.5ZM19.25 18.5625H6.75C6.2375 18.5625 5.8125 18.1375 5.8125 17.625C5.8125 17.1125 6.2375 16.6875 6.75 16.6875H19.25C19.7625 16.6875 20.1875 17.1125 20.1875 17.625C20.1875 18.1375 19.7625 18.5625 19.25 18.5625ZM19.25 12.9375H6.75C6.2375 12.9375 5.8125 12.5125 5.8125 12C5.8125 11.4875 6.2375 11.0625 6.75 11.0625H19.25C19.7625 11.0625 20.1875 11.4875 20.1875 12C20.1875 12.5125 19.7625 12.9375 19.25 12.9375ZM19.25 7.3125H6.75C6.2375 7.3125 5.8125 6.8875 5.8125 6.375C5.8125 5.8625 6.2375 5.4375 6.75 5.4375H19.25C19.7625 5.4375 20.1875 5.8625 20.1875 6.375C20.1875 6.8875 19.7625 7.3125 19.25 7.3125Z" fill="#822B23" fill-opacity="0.13"/>
</g>
<defs>
<clipPath id="clip0_1632_87848">
<rect x="0.649902" width="24" height="24" rx="2" fill="white"/>
</clipPath>
</defs>
</svg>
