<svg width="30" height="30" viewBox="0 0 30 30" fill="none" xmlns="http://www.w3.org/2000/svg">
<path d="M23.75 10C25.8211 10 27.5 8.32107 27.5 6.25C27.5 4.17893 25.8211 2.5 23.75 2.5C21.6789 2.5 20 4.17893 20 6.25C20 8.32107 21.6789 10 23.75 10Z" fill="#822B23" fill-opacity="0.13"/>
<path d="M24.75 11.775C24.725 11.775 24.7 11.7875 24.675 11.7875C24.55 11.8125 24.425 11.825 24.2875 11.85C23.7625 11.9 23.2 11.875 22.625 11.7625C22.475 11.725 22.35 11.7 22.2125 11.65C21.8 11.55 21.4125 11.3875 21.05 11.175C20.9 11.1 20.75 11 20.6125 10.9125C20.0125 10.5 19.5 9.9875 19.0875 9.3875C19 9.25 18.9 9.1 18.825 8.95C18.6125 8.5875 18.45 8.2 18.35 7.7875C18.3 7.65 18.275 7.525 18.2375 7.375C18.125 6.8 18.1 6.2375 18.15 5.7125C18.175 5.575 18.1875 5.45 18.2125 5.325C18.2125 5.3 18.225 5.275 18.225 5.25C18.375 4.475 17.8 3.75 17 3.75H9.4C9.225 3.75 9.05 3.7625 8.8875 3.775C8.7375 3.7875 8.6 3.8 8.45 3.825C8.3 3.8375 8.15 3.8625 8.0125 3.8875C5 4.325 3.075 6.2375 2.6375 9.2625C2.6125 9.4 2.5875 9.55 2.575 9.7C2.55 9.85 2.5375 9.9875 2.525 10.1375C2.5125 10.3 2.5 10.475 2.5 10.65V20.6C2.5 20.775 2.5125 20.95 2.525 21.1125C2.5375 21.2625 2.55 21.4 2.575 21.55C2.5875 21.7 2.6125 21.85 2.6375 21.9875C3.075 25.0125 5 26.925 8.0125 27.3625C8.15 27.3875 8.3 27.4125 8.45 27.425C8.6 27.45 8.7375 27.4625 8.8875 27.475C9.05 27.4875 9.225 27.5 9.4 27.5H19.35C19.525 27.5 19.7 27.4875 19.8625 27.475C20.0125 27.4625 20.15 27.45 20.3 27.425C20.45 27.4125 20.6 27.3875 20.7375 27.3625C23.75 26.925 25.675 25.0125 26.1125 21.9875C26.1375 21.85 26.1625 21.7 26.175 21.55C26.2 21.4 26.2125 21.2625 26.225 21.1125C26.2375 20.95 26.25 20.775 26.25 20.6V13C26.25 12.2 25.525 11.625 24.75 11.775ZM8.4375 15.625H14.6875C15.2 15.625 15.625 16.05 15.625 16.5625C15.625 17.075 15.2 17.5 14.6875 17.5H8.4375C7.925 17.5 7.5 17.075 7.5 16.5625C7.5 16.05 7.925 15.625 8.4375 15.625ZM19.6875 22.5H8.4375C7.925 22.5 7.5 22.075 7.5 21.5625C7.5 21.05 7.925 20.625 8.4375 20.625H19.6875C20.2 20.625 20.625 21.05 20.625 21.5625C20.625 22.075 20.2 22.5 19.6875 22.5Z" fill="#822B23" fill-opacity="0.13"/>
</svg>
