<svg width="29" height="30" viewBox="0 0 29 30" fill="none" xmlns="http://www.w3.org/2000/svg">
<path d="M24.1364 17.4405L22.7977 15.2132C22.5015 14.7275 22.2409 13.7915 22.2409 13.2229V11.0074C22.2409 6.70686 18.7459 3.21191 14.4572 3.21191C10.1566 3.22376 6.66167 6.70686 6.66167 11.0074V13.211C6.66167 13.7797 6.40103 14.7156 6.11669 15.2014L4.77795 17.4287C4.26852 18.2935 4.15004 19.2768 4.46992 20.1298C4.7898 20.9947 5.51248 21.6818 6.46027 21.9899C7.73977 22.4164 9.03113 22.7244 10.3462 22.9495C10.4765 22.9732 10.6068 22.985 10.7371 23.0087C10.903 23.0324 11.0807 23.0561 11.2584 23.0798C11.5664 23.1272 11.8745 23.1628 12.1944 23.1864C12.9407 23.2575 13.699 23.2931 14.4572 23.2931C15.2036 23.2931 15.9499 23.2575 16.6845 23.1864C16.957 23.1628 17.2295 23.1391 17.4901 23.1035C17.7033 23.0798 17.9166 23.0561 18.1298 23.0206C18.2602 23.0087 18.3905 22.985 18.5208 22.9613C19.8477 22.7481 21.1628 22.4164 22.4423 21.9899C23.3545 21.6818 24.0535 20.9947 24.3852 20.118C24.7169 19.2295 24.6222 18.258 24.1364 17.4405ZM15.322 12.6305C15.322 13.1281 14.9192 13.5309 14.4216 13.5309C13.9241 13.5309 13.5213 13.1281 13.5213 12.6305V8.95785C13.5213 8.46026 13.9241 8.05746 14.4216 8.05746C14.9192 8.05746 15.322 8.46026 15.322 8.95785V12.6305Z" fill="#D5DFE6"/>
<path d="M17.7865 24.4896C17.2889 25.8639 15.9739 26.8472 14.4337 26.8472C13.4978 26.8472 12.5737 26.4681 11.9221 25.7928C11.543 25.4374 11.2586 24.9635 11.0928 24.4778C11.2468 24.5015 11.4008 24.5133 11.5667 24.537C11.8392 24.5726 12.1235 24.6081 12.4078 24.6318C13.0831 24.691 13.7703 24.7266 14.4574 24.7266C15.1327 24.7266 15.808 24.691 16.4714 24.6318C16.7202 24.6081 16.969 24.5963 17.206 24.5607C17.3955 24.537 17.5851 24.5133 17.7865 24.4896Z" fill="#D5DFE6"/>
</svg>
