<svg width="26" height="24" viewBox="0 0 26 24" fill="none" xmlns="http://www.w3.org/2000/svg">
<path d="M23 2.242C23.5523 2.242 24 1.79429 24 1.242C24 0.68972 23.5523 0.242004 23 0.242004V2.242ZM4.87501 2.242L23 2.242V0.242004L4.87501 0.242004V2.242ZM4.87501 8.492L14.875 8.492V6.492L4.87501 6.492V8.492ZM2.75001 4.367C2.75001 3.1934 3.7014 2.242 4.87501 2.242V0.242004C2.59683 0.242004 0.75001 2.08883 0.75001 4.367H2.75001ZM0.75001 4.367C0.75001 6.64518 2.59683 8.492 4.87501 8.492V6.492C3.7014 6.492 2.75001 5.54061 2.75001 4.367H0.75001Z" fill="#474A56"/>
<path d="M1.75 11.242L1.75 4.367" stroke="#474A56" stroke-width="2"/>
<path d="M24.75 18.742V18.242H24.25H20.5C18.7051 18.242 17.25 16.7869 17.25 14.992C17.25 13.1971 18.7051 11.742 20.5 11.742H24.25H24.75V11.242L24.75 9.492L24.75 9.45909C24.75 9.01585 24.75 8.63394 24.7089 8.32811C24.6649 8.00035 24.5655 7.68618 24.3107 7.43134C24.0558 7.17651 23.7417 7.07714 23.4139 7.03307C23.1081 6.99196 22.7262 6.99198 22.2829 6.992L22.25 6.992L1.75 6.992H1.25V7.492L1.25 20.492V20.5249C1.24998 20.9682 1.24995 21.3501 1.29107 21.6559C1.33514 21.9837 1.43451 22.2978 1.68934 22.5527L1.68934 22.5527C1.94417 22.8075 2.25835 22.9069 2.58611 22.9509C2.89193 22.9921 3.27384 22.992 3.71708 22.992L3.75 22.992L22.25 22.992C22.261 22.992 22.272 22.992 22.2829 22.992C22.7262 22.992 23.1081 22.9921 23.4139 22.9509C23.7417 22.9069 24.0558 22.8075 24.3107 22.5527C24.5655 22.2978 24.6649 21.9837 24.7089 21.6559C24.75 21.3501 24.75 20.9682 24.75 20.5249C24.75 20.514 24.75 20.503 24.75 20.492V18.742Z" fill="#474A56" stroke="#474A56"/>
</svg>
