<svg width="30" height="31" viewBox="0 0 30 31" fill="none" xmlns="http://www.w3.org/2000/svg">
<path d="M25 6.242C25.5523 6.242 26 5.79429 26 5.242C26 4.68972 25.5523 4.242 25 4.242V6.242ZM6.87501 6.242L25 6.242V4.242L6.87501 4.242V6.242ZM6.87501 12.492L16.875 12.492V10.492L6.87501 10.492V12.492ZM4.75001 8.367C4.75001 7.1934 5.7014 6.242 6.87501 6.242V4.242C4.59683 4.242 2.75001 6.08883 2.75001 8.367H4.75001ZM2.75001 8.367C2.75001 10.6452 4.59683 12.492 6.87501 12.492V10.492C5.7014 10.492 4.75001 9.54061 4.75001 8.367H2.75001Z" fill="#474A56"/>
<path d="M3.75 15.242L3.75 8.367" stroke="#474A56" stroke-width="2"/>
<path d="M26.3107 26.5527C26.5655 26.2978 26.6649 25.9837 26.7089 25.6559C26.75 25.3501 26.75 24.9682 26.75 24.5249C26.75 24.514 26.75 24.503 26.75 24.492V22.742V22.242H26.25H22.5C20.7051 22.242 19.25 20.7869 19.25 18.992C19.25 17.1971 20.7051 15.742 22.5 15.742H26.25H26.75V15.242L26.75 13.492L26.75 13.4591C26.75 13.0158 26.75 12.6339 26.7089 12.3281C26.6649 12.0004 26.5655 11.6862 26.3107 11.4313C26.0558 11.1765 25.7417 11.0771 25.4139 11.0331C25.1081 10.992 24.7262 10.992 24.2829 10.992L24.25 10.992L3.75 10.992H3.25V11.492L3.25 24.492V24.5249C3.24998 24.9682 3.24995 25.3501 3.29107 25.6559C3.33514 25.9837 3.43451 26.2978 3.68934 26.5527L3.68934 26.5527C3.94417 26.8075 4.25835 26.9069 4.58611 26.9509C4.89193 26.9921 5.27384 26.992 5.71708 26.992L5.75 26.992L24.25 26.992C24.261 26.992 24.272 26.992 24.2829 26.992C24.7262 26.992 25.1081 26.9921 25.4139 26.9509C25.7417 26.9069 26.0558 26.8075 26.3107 26.5527ZM26.3107 26.5527L25.9571 26.1991M26.3107 26.5527L25.9571 26.1991M25.9571 26.1991C25.6642 26.492 25.1928 26.492 24.25 26.492L5.75 26.492C4.80719 26.492 4.33579 26.492 4.04289 26.1991C3.75 25.9062 3.75 25.4348 3.75 24.492L3.75 11.992V11.492H4.25L24.25 11.492C25.1928 11.492 25.6642 11.492 25.9571 11.7849C26.25 12.0778 26.25 12.5492 26.25 13.492V14.742V15.242H25.75H22.5C20.4289 15.242 18.75 16.9209 18.75 18.992C18.75 21.0631 20.4289 22.742 22.5 22.742H25.75H26.25V23.242V24.492C26.25 25.4348 26.25 25.9062 25.9571 26.1991Z" fill="#474A56" stroke="#474A56"/>
</svg>
