<svg width="376" height="50" viewBox="0 0 376 50" fill="none" xmlns="http://www.w3.org/2000/svg">
<rect width="376" height="50" rx="6" fill="#F8F8FA"/>
<path d="M16.1477 30.5V18.8636H20.5114C21.4053 18.8636 22.1553 19.0303 22.7614 19.3636C23.3712 19.697 23.8314 20.1553 24.142 20.7386C24.4564 21.3182 24.6136 21.9773 24.6136 22.7159C24.6136 23.4621 24.4564 24.125 24.142 24.7045C23.8277 25.2841 23.3636 25.7405 22.75 26.0739C22.1364 26.4034 21.3807 26.5682 20.483 26.5682H17.5909V24.8352H20.1989C20.7216 24.8352 21.1496 24.7443 21.483 24.5625C21.8163 24.3807 22.0625 24.1307 22.2216 23.8125C22.3845 23.4943 22.4659 23.1288 22.4659 22.7159C22.4659 22.303 22.3845 21.9394 22.2216 21.625C22.0625 21.3106 21.8144 21.0663 21.4773 20.892C21.1439 20.714 20.714 20.625 20.1875 20.625H18.2557V30.5H16.1477ZM26.3537 30.5V21.7727H28.348V23.2273H28.4389C28.598 22.7235 28.8707 22.3352 29.2571 22.0625C29.6473 21.786 30.0923 21.6477 30.5923 21.6477C30.706 21.6477 30.8329 21.6534 30.973 21.6648C31.117 21.6723 31.2363 21.6856 31.331 21.7045V23.5966C31.2438 23.5663 31.1056 23.5398 30.9162 23.517C30.7306 23.4905 30.5507 23.4773 30.3764 23.4773C30.0014 23.4773 29.6643 23.5587 29.3651 23.7216C29.0696 23.8807 28.8366 24.1023 28.6662 24.3864C28.4957 24.6705 28.4105 24.9981 28.4105 25.3693V30.5H26.3537ZM32.6974 30.5V21.7727H34.7543V30.5H32.6974ZM33.7315 20.5341C33.4058 20.5341 33.1255 20.4261 32.8906 20.2102C32.6558 19.9905 32.5384 19.7273 32.5384 19.4205C32.5384 19.1098 32.6558 18.8466 32.8906 18.6307C33.1255 18.411 33.4058 18.3011 33.7315 18.3011C34.0611 18.3011 34.3414 18.411 34.5724 18.6307C34.8073 18.8466 34.9247 19.1098 34.9247 19.4205C34.9247 19.7273 34.8073 19.9905 34.5724 20.2102C34.3414 20.4261 34.0611 20.5341 33.7315 20.5341ZM44.6648 21.7727L41.5568 30.5H39.2841L36.1761 21.7727H38.3693L40.375 28.2557H40.4659L42.4773 21.7727H44.6648ZM48.3494 30.6761C47.7964 30.6761 47.2983 30.5777 46.8551 30.3807C46.4157 30.1799 46.0672 29.8845 45.8097 29.4943C45.5559 29.1042 45.429 28.6231 45.429 28.0511C45.429 27.5587 45.5199 27.1515 45.7017 26.8295C45.8835 26.5076 46.1316 26.25 46.446 26.0568C46.7604 25.8636 47.1146 25.7178 47.5085 25.6193C47.9063 25.517 48.3172 25.4432 48.7415 25.3977C49.2528 25.3447 49.6676 25.2973 49.9858 25.2557C50.304 25.2102 50.535 25.142 50.679 25.0511C50.8267 24.9564 50.9006 24.8106 50.9006 24.6136V24.5795C50.9006 24.1515 50.7737 23.8201 50.5199 23.5852C50.2661 23.3504 49.9006 23.233 49.4233 23.233C48.9195 23.233 48.5199 23.3428 48.2244 23.5625C47.9328 23.7822 47.7358 24.0417 47.6335 24.3409L45.7131 24.0682C45.8646 23.5379 46.1146 23.0947 46.4631 22.7386C46.8116 22.3788 47.2377 22.1098 47.7415 21.9318C48.2453 21.75 48.8021 21.6591 49.4119 21.6591C49.8324 21.6591 50.2509 21.7083 50.6676 21.8068C51.0843 21.9053 51.465 22.0682 51.8097 22.2955C52.1544 22.5189 52.4309 22.8239 52.6392 23.2102C52.8513 23.5966 52.9574 24.0795 52.9574 24.6591V30.5H50.9801V29.3011H50.9119C50.7869 29.5436 50.6108 29.7708 50.3835 29.983C50.16 30.1913 49.8778 30.3598 49.5369 30.4886C49.1998 30.6136 48.804 30.6761 48.3494 30.6761ZM48.8835 29.1648C49.2964 29.1648 49.6544 29.0833 49.9574 28.9205C50.2604 28.7538 50.4934 28.5341 50.6562 28.2614C50.8229 27.9886 50.9062 27.6913 50.9062 27.3693V26.3409C50.8419 26.3939 50.732 26.4432 50.5767 26.4886C50.4252 26.5341 50.2547 26.5739 50.0653 26.608C49.8759 26.642 49.6884 26.6723 49.5028 26.6989C49.3172 26.7254 49.1563 26.7481 49.0199 26.767C48.7131 26.8087 48.4384 26.8769 48.196 26.9716C47.9536 27.0663 47.7623 27.1989 47.6222 27.3693C47.482 27.536 47.4119 27.7519 47.4119 28.017C47.4119 28.3958 47.5502 28.6818 47.8267 28.875C48.1032 29.0682 48.4555 29.1648 48.8835 29.1648ZM58.8324 30.6705C57.9612 30.6705 57.2131 30.4792 56.5881 30.0966C55.9669 29.714 55.4877 29.1856 55.1506 28.5114C54.8172 27.8333 54.6506 27.053 54.6506 26.1705C54.6506 25.2841 54.821 24.5019 55.1619 23.8239C55.5028 23.142 55.9839 22.6117 56.6051 22.233C57.2301 21.8504 57.9688 21.6591 58.821 21.6591C59.5294 21.6591 60.1563 21.7898 60.7017 22.0511C61.2509 22.3087 61.6884 22.6742 62.0142 23.1477C62.34 23.6174 62.5256 24.1667 62.571 24.7955H60.6051C60.5256 24.375 60.3362 24.0246 60.0369 23.7443C59.7415 23.4602 59.3456 23.3182 58.8494 23.3182C58.429 23.3182 58.0597 23.4318 57.7415 23.6591C57.4233 23.8826 57.1752 24.2045 56.9972 24.625C56.8229 25.0455 56.7358 25.5492 56.7358 26.1364C56.7358 26.7311 56.8229 27.2424 56.9972 27.6705C57.1714 28.0947 57.4157 28.4223 57.7301 28.6534C58.0483 28.8807 58.4214 28.9943 58.8494 28.9943C59.1525 28.9943 59.4233 28.9375 59.6619 28.8239C59.9044 28.7064 60.107 28.5379 60.2699 28.3182C60.4328 28.0985 60.5445 27.8314 60.6051 27.517H62.571C62.5218 28.1345 62.34 28.6818 62.0256 29.1591C61.7112 29.6326 61.2831 30.0038 60.7415 30.2727C60.1998 30.5379 59.5634 30.6705 58.8324 30.6705ZM65.5384 33.7727C65.258 33.7727 64.9986 33.75 64.7599 33.7045C64.5251 33.6629 64.3376 33.6136 64.1974 33.5568L64.6747 31.9545C64.974 32.0417 65.241 32.0833 65.4759 32.0795C65.7107 32.0758 65.9171 32.0019 66.0952 31.858C66.277 31.7178 66.4304 31.483 66.5554 31.1534L66.7315 30.6818L63.5668 21.7727H65.7486L67.7599 28.3636H67.8509L69.8679 21.7727H72.0554L68.5611 31.5568C68.3982 32.0189 68.1823 32.4148 67.9134 32.7443C67.6444 33.0777 67.3149 33.3314 66.9247 33.5057C66.5384 33.6837 66.0762 33.7727 65.5384 33.7727Z" fill="#474A56"/>
<path d="M346 19L352 25L346 31" stroke="#474A56" stroke-width="2" stroke-linecap="round"/>
</svg>
