<svg width="376" height="50" viewBox="0 0 376 50" fill="none" xmlns="http://www.w3.org/2000/svg">
<rect width="376" height="50" rx="6" fill="#F8F8FA"/>
<path d="M25.7102 18.8636V30.5H23.8352L18.3523 22.5739H18.2557V30.5H16.1477V18.8636H18.0341L23.5114 26.7955H23.6136V18.8636H25.7102ZM31.723 30.6705C30.8707 30.6705 30.1321 30.483 29.5071 30.108C28.8821 29.733 28.3973 29.2083 28.0526 28.5341C27.7116 27.8598 27.5412 27.072 27.5412 26.1705C27.5412 25.2689 27.7116 24.4792 28.0526 23.8011C28.3973 23.1231 28.8821 22.5966 29.5071 22.2216C30.1321 21.8466 30.8707 21.6591 31.723 21.6591C32.5753 21.6591 33.3139 21.8466 33.9389 22.2216C34.5639 22.5966 35.0469 23.1231 35.3878 23.8011C35.7325 24.4792 35.9048 25.2689 35.9048 26.1705C35.9048 27.072 35.7325 27.8598 35.3878 28.5341C35.0469 29.2083 34.5639 29.733 33.9389 30.108C33.3139 30.483 32.5753 30.6705 31.723 30.6705ZM31.7344 29.0227C32.1965 29.0227 32.5829 28.8958 32.8935 28.642C33.2041 28.3845 33.4351 28.0398 33.5866 27.608C33.742 27.1761 33.8196 26.6951 33.8196 26.1648C33.8196 25.6307 33.742 25.1477 33.5866 24.7159C33.4351 24.2803 33.2041 23.9337 32.8935 23.6761C32.5829 23.4186 32.1965 23.2898 31.7344 23.2898C31.2609 23.2898 30.867 23.4186 30.5526 23.6761C30.242 23.9337 30.009 24.2803 29.8537 24.7159C29.7022 25.1477 29.6264 25.6307 29.6264 26.1648C29.6264 26.6951 29.7022 27.1761 29.8537 27.608C30.009 28.0398 30.242 28.3845 30.5526 28.642C30.867 28.8958 31.2609 29.0227 31.7344 29.0227ZM42.0085 21.7727V23.3636H36.9915V21.7727H42.0085ZM38.2301 19.6818H40.2869V27.875C40.2869 28.1515 40.3286 28.3636 40.4119 28.5114C40.4991 28.6553 40.6127 28.7538 40.7528 28.8068C40.893 28.8598 41.0483 28.8864 41.2188 28.8864C41.3475 28.8864 41.465 28.8769 41.571 28.858C41.6809 28.839 41.7642 28.822 41.821 28.8068L42.1676 30.4148C42.0578 30.4527 41.9006 30.4943 41.696 30.5398C41.4953 30.5852 41.2491 30.6117 40.9574 30.6193C40.4422 30.6345 39.9782 30.5568 39.5653 30.3864C39.1525 30.2121 38.8248 29.9432 38.5824 29.5795C38.3438 29.2159 38.2263 28.7614 38.2301 28.2159V19.6818ZM43.7287 30.5V21.7727H45.7855V30.5H43.7287ZM44.7628 20.5341C44.437 20.5341 44.1567 20.4261 43.9219 20.2102C43.687 19.9905 43.5696 19.7273 43.5696 19.4205C43.5696 19.1098 43.687 18.8466 43.9219 18.6307C44.1567 18.411 44.437 18.3011 44.7628 18.3011C45.0923 18.3011 45.3726 18.411 45.6037 18.6307C45.8385 18.8466 45.956 19.1098 45.956 19.4205C45.956 19.7273 45.8385 19.9905 45.6037 20.2102C45.3726 20.4261 45.0923 20.5341 44.7628 20.5341ZM52.321 21.7727V23.3636H47.1619V21.7727H52.321ZM48.4517 30.5V20.9489C48.4517 20.3617 48.5729 19.8731 48.8153 19.483C49.0616 19.0928 49.3911 18.8011 49.804 18.608C50.2169 18.4148 50.6752 18.3182 51.179 18.3182C51.535 18.3182 51.8513 18.3466 52.1278 18.4034C52.4044 18.4602 52.6089 18.5114 52.7415 18.5568L52.3324 20.1477C52.2453 20.1212 52.1354 20.0947 52.0028 20.0682C51.8703 20.0379 51.7225 20.0227 51.5597 20.0227C51.1771 20.0227 50.9063 20.1155 50.7472 20.3011C50.5919 20.483 50.5142 20.7443 50.5142 21.0852V30.5H48.4517ZM53.9318 30.5V21.7727H55.9886V30.5H53.9318ZM54.9659 20.5341C54.6402 20.5341 54.3598 20.4261 54.125 20.2102C53.8902 19.9905 53.7727 19.7273 53.7727 19.4205C53.7727 19.1098 53.8902 18.8466 54.125 18.6307C54.3598 18.411 54.6402 18.3011 54.9659 18.3011C55.2955 18.3011 55.5758 18.411 55.8068 18.6307C56.0417 18.8466 56.1591 19.1098 56.1591 19.4205C56.1591 19.7273 56.0417 19.9905 55.8068 20.2102C55.5758 20.4261 55.2955 20.5341 54.9659 20.5341ZM61.9105 30.6705C61.0393 30.6705 60.2912 30.4792 59.6662 30.0966C59.045 29.714 58.5658 29.1856 58.2287 28.5114C57.8954 27.8333 57.7287 27.053 57.7287 26.1705C57.7287 25.2841 57.8991 24.5019 58.2401 23.8239C58.581 23.142 59.062 22.6117 59.6832 22.233C60.3082 21.8504 61.0469 21.6591 61.8991 21.6591C62.6075 21.6591 63.2344 21.7898 63.7798 22.0511C64.3291 22.3087 64.7666 22.6742 65.0923 23.1477C65.4181 23.6174 65.6037 24.1667 65.6491 24.7955H63.6832C63.6037 24.375 63.4143 24.0246 63.1151 23.7443C62.8196 23.4602 62.4238 23.3182 61.9276 23.3182C61.5071 23.3182 61.1378 23.4318 60.8196 23.6591C60.5014 23.8826 60.2533 24.2045 60.0753 24.625C59.901 25.0455 59.8139 25.5492 59.8139 26.1364C59.8139 26.7311 59.901 27.2424 60.0753 27.6705C60.2495 28.0947 60.4938 28.4223 60.8082 28.6534C61.1264 28.8807 61.4995 28.9943 61.9276 28.9943C62.2306 28.9943 62.5014 28.9375 62.7401 28.8239C62.9825 28.7064 63.1851 28.5379 63.348 28.3182C63.5109 28.0985 63.6226 27.8314 63.6832 27.517H65.6491C65.5999 28.1345 65.4181 28.6818 65.1037 29.1591C64.7893 29.6326 64.3613 30.0038 63.8196 30.2727C63.2779 30.5379 62.6416 30.6705 61.9105 30.6705ZM69.8494 30.6761C69.2964 30.6761 68.7983 30.5777 68.3551 30.3807C67.9157 30.1799 67.5672 29.8845 67.3097 29.4943C67.0559 29.1042 66.929 28.6231 66.929 28.0511C66.929 27.5587 67.0199 27.1515 67.2017 26.8295C67.3835 26.5076 67.6316 26.25 67.946 26.0568C68.2604 25.8636 68.6146 25.7178 69.0085 25.6193C69.4063 25.517 69.8172 25.4432 70.2415 25.3977C70.7528 25.3447 71.1676 25.2973 71.4858 25.2557C71.804 25.2102 72.035 25.142 72.179 25.0511C72.3267 24.9564 72.4006 24.8106 72.4006 24.6136V24.5795C72.4006 24.1515 72.2737 23.8201 72.0199 23.5852C71.7661 23.3504 71.4006 23.233 70.9233 23.233C70.4195 23.233 70.0199 23.3428 69.7244 23.5625C69.4328 23.7822 69.2358 24.0417 69.1335 24.3409L67.2131 24.0682C67.3646 23.5379 67.6146 23.0947 67.9631 22.7386C68.3116 22.3788 68.7377 22.1098 69.2415 21.9318C69.7453 21.75 70.3021 21.6591 70.9119 21.6591C71.3324 21.6591 71.7509 21.7083 72.1676 21.8068C72.5843 21.9053 72.965 22.0682 73.3097 22.2955C73.6544 22.5189 73.9309 22.8239 74.1392 23.2102C74.3513 23.5966 74.4574 24.0795 74.4574 24.6591V30.5H72.4801V29.3011H72.4119C72.2869 29.5436 72.1108 29.7708 71.8835 29.983C71.66 30.1913 71.3778 30.3598 71.0369 30.4886C70.6998 30.6136 70.304 30.6761 69.8494 30.6761ZM70.3835 29.1648C70.7964 29.1648 71.1544 29.0833 71.4574 28.9205C71.7604 28.7538 71.9934 28.5341 72.1562 28.2614C72.3229 27.9886 72.4062 27.6913 72.4062 27.3693V26.3409C72.3419 26.3939 72.232 26.4432 72.0767 26.4886C71.9252 26.5341 71.7547 26.5739 71.5653 26.608C71.3759 26.642 71.1884 26.6723 71.0028 26.6989C70.8172 26.7254 70.6563 26.7481 70.5199 26.767C70.2131 26.8087 69.9384 26.8769 69.696 26.9716C69.4536 27.0663 69.2623 27.1989 69.1222 27.3693C68.982 27.536 68.9119 27.7519 68.9119 28.017C68.9119 28.3958 69.0502 28.6818 69.3267 28.875C69.6032 29.0682 69.9555 29.1648 70.3835 29.1648ZM80.8835 21.7727V23.3636H75.8665V21.7727H80.8835ZM77.1051 19.6818H79.1619V27.875C79.1619 28.1515 79.2036 28.3636 79.2869 28.5114C79.3741 28.6553 79.4877 28.7538 79.6278 28.8068C79.768 28.8598 79.9233 28.8864 80.0938 28.8864C80.2225 28.8864 80.34 28.8769 80.446 28.858C80.5559 28.839 80.6392 28.822 80.696 28.8068L81.0426 30.4148C80.9328 30.4527 80.7756 30.4943 80.571 30.5398C80.3703 30.5852 80.1241 30.6117 79.8324 30.6193C79.3172 30.6345 78.8532 30.5568 78.4403 30.3864C78.0275 30.2121 77.6998 29.9432 77.4574 29.5795C77.2188 29.2159 77.1013 28.7614 77.1051 28.2159V19.6818ZM82.6037 30.5V21.7727H84.6605V30.5H82.6037ZM83.6378 20.5341C83.312 20.5341 83.0317 20.4261 82.7969 20.2102C82.562 19.9905 82.4446 19.7273 82.4446 19.4205C82.4446 19.1098 82.562 18.8466 82.7969 18.6307C83.0317 18.411 83.312 18.3011 83.6378 18.3011C83.9673 18.3011 84.2476 18.411 84.4787 18.6307C84.7135 18.8466 84.831 19.1098 84.831 19.4205C84.831 19.7273 84.7135 19.9905 84.4787 20.2102C84.2476 20.4261 83.9673 20.5341 83.6378 20.5341ZM90.5824 30.6705C89.7301 30.6705 88.9915 30.483 88.3665 30.108C87.7415 29.733 87.2566 29.2083 86.9119 28.5341C86.571 27.8598 86.4006 27.072 86.4006 26.1705C86.4006 25.2689 86.571 24.4792 86.9119 23.8011C87.2566 23.1231 87.7415 22.5966 88.3665 22.2216C88.9915 21.8466 89.7301 21.6591 90.5824 21.6591C91.4347 21.6591 92.1733 21.8466 92.7983 22.2216C93.4233 22.5966 93.9063 23.1231 94.2472 23.8011C94.5919 24.4792 94.7642 25.2689 94.7642 26.1705C94.7642 27.072 94.5919 27.8598 94.2472 28.5341C93.9063 29.2083 93.4233 29.733 92.7983 30.108C92.1733 30.483 91.4347 30.6705 90.5824 30.6705ZM90.5938 29.0227C91.0559 29.0227 91.4422 28.8958 91.7528 28.642C92.0634 28.3845 92.2945 28.0398 92.446 27.608C92.6013 27.1761 92.679 26.6951 92.679 26.1648C92.679 25.6307 92.6013 25.1477 92.446 24.7159C92.2945 24.2803 92.0634 23.9337 91.7528 23.6761C91.4422 23.4186 91.0559 23.2898 90.5938 23.2898C90.1203 23.2898 89.7263 23.4186 89.4119 23.6761C89.1013 23.9337 88.8684 24.2803 88.7131 24.7159C88.5616 25.1477 88.4858 25.6307 88.4858 26.1648C88.4858 26.6951 88.5616 27.1761 88.7131 27.608C88.8684 28.0398 89.1013 28.3845 89.4119 28.642C89.7263 28.8958 90.1203 29.0227 90.5938 29.0227ZM98.5668 25.3864V30.5H96.5099V21.7727H98.4759V23.2557H98.5781C98.7789 22.767 99.099 22.3788 99.5384 22.0909C99.9815 21.803 100.529 21.6591 101.18 21.6591C101.783 21.6591 102.307 21.7879 102.754 22.0455C103.205 22.303 103.554 22.6761 103.8 23.1648C104.05 23.6534 104.173 24.2462 104.169 24.9432V30.5H102.112V25.2614C102.112 24.678 101.961 24.2216 101.658 23.892C101.358 23.5625 100.944 23.3977 100.413 23.3977C100.054 23.3977 99.7334 23.4773 99.4531 23.6364C99.1766 23.7917 98.9588 24.017 98.7997 24.3125C98.6444 24.608 98.5668 24.9659 98.5668 25.3864ZM113.158 24.0795L111.283 24.2841C111.23 24.0947 111.137 23.9167 111.004 23.75C110.875 23.5833 110.701 23.4489 110.482 23.3466C110.262 23.2443 109.993 23.1932 109.675 23.1932C109.247 23.1932 108.887 23.286 108.595 23.4716C108.307 23.6572 108.165 23.8977 108.169 24.1932C108.165 24.447 108.258 24.6534 108.447 24.8125C108.641 24.9716 108.959 25.1023 109.402 25.2045L110.891 25.5227C111.716 25.7008 112.33 25.983 112.732 26.3693C113.137 26.7557 113.341 27.2614 113.345 27.8864C113.341 28.4356 113.18 28.9205 112.862 29.3409C112.548 29.7576 112.11 30.0833 111.55 30.3182C110.989 30.553 110.345 30.6705 109.618 30.6705C108.55 30.6705 107.69 30.447 107.038 30C106.387 29.5492 105.999 28.9223 105.874 28.1193L107.879 27.9261C107.97 28.3201 108.163 28.6174 108.459 28.8182C108.754 29.0189 109.139 29.1193 109.612 29.1193C110.101 29.1193 110.493 29.0189 110.788 28.8182C111.088 28.6174 111.237 28.3693 111.237 28.0739C111.237 27.8239 111.141 27.6174 110.947 27.4545C110.758 27.2917 110.463 27.1667 110.061 27.0795L108.572 26.767C107.735 26.5928 107.116 26.2992 106.714 25.8864C106.313 25.4697 106.114 24.9432 106.118 24.3068C106.114 23.7689 106.26 23.303 106.555 22.9091C106.855 22.5114 107.269 22.2045 107.8 21.9886C108.334 21.7689 108.949 21.6591 109.646 21.6591C110.669 21.6591 111.474 21.8769 112.061 22.3125C112.652 22.7481 113.018 23.3371 113.158 24.0795Z" fill="#474A56"/>
<path d="M346 19L352 25L346 31" stroke="#474A56" stroke-width="2" stroke-linecap="round"/>
</svg>
