<svg width="376" height="50" viewBox="0 0 376 50" fill="none" xmlns="http://www.w3.org/2000/svg">
<rect width="376" height="50" rx="6" fill="#F8F8FA"/>
<path d="M16.1477 30.5V18.8636H20.5114C21.4053 18.8636 22.1553 19.0303 22.7614 19.3636C23.3712 19.697 23.8314 20.1553 24.142 20.7386C24.4564 21.3182 24.6136 21.9773 24.6136 22.7159C24.6136 23.4621 24.4564 24.125 24.142 24.7045C23.8277 25.2841 23.3636 25.7405 22.75 26.0739C22.1364 26.4034 21.3807 26.5682 20.483 26.5682H17.5909V24.8352H20.1989C20.7216 24.8352 21.1496 24.7443 21.483 24.5625C21.8163 24.3807 22.0625 24.1307 22.2216 23.8125C22.3845 23.4943 22.4659 23.1288 22.4659 22.7159C22.4659 22.303 22.3845 21.9394 22.2216 21.625C22.0625 21.3106 21.8144 21.0663 21.4773 20.892C21.1439 20.714 20.714 20.625 20.1875 20.625H18.2557V30.5H16.1477ZM30.0923 30.6705C29.2173 30.6705 28.4616 30.4886 27.8253 30.125C27.1927 29.7576 26.706 29.2386 26.3651 28.5682C26.0241 27.8939 25.8537 27.1004 25.8537 26.1875C25.8537 25.2898 26.0241 24.5019 26.3651 23.8239C26.7098 23.142 27.1908 22.6117 27.8082 22.233C28.4257 21.8504 29.151 21.6591 29.9844 21.6591C30.5223 21.6591 31.0298 21.7462 31.5071 21.9205C31.9882 22.0909 32.4124 22.3561 32.7798 22.7159C33.151 23.0758 33.4427 23.5341 33.6548 24.0909C33.867 24.6439 33.973 25.303 33.973 26.0682V26.6989H26.8196V25.3125H32.0014C31.9976 24.9186 31.9124 24.5682 31.7457 24.2614C31.5791 23.9508 31.3461 23.7064 31.0469 23.5284C30.7514 23.3504 30.4067 23.2614 30.0128 23.2614C29.5923 23.2614 29.223 23.3636 28.9048 23.5682C28.5866 23.7689 28.3385 24.0341 28.1605 24.3636C27.9863 24.6894 27.8973 25.0473 27.8935 25.4375V26.6477C27.8935 27.1553 27.9863 27.5909 28.1719 27.9545C28.3575 28.3144 28.617 28.5909 28.9503 28.7841C29.2836 28.9735 29.6738 29.0682 30.1207 29.0682C30.42 29.0682 30.6908 29.0265 30.9332 28.9432C31.1757 28.8561 31.3859 28.7292 31.5639 28.5625C31.742 28.3958 31.8764 28.1894 31.9673 27.9432L33.8878 28.1591C33.7666 28.6667 33.5355 29.1098 33.1946 29.4886C32.8575 29.8636 32.4257 30.1553 31.8991 30.3636C31.3726 30.5682 30.7704 30.6705 30.0923 30.6705ZM35.7131 30.5V21.7727H37.7074V23.2273H37.7983C37.9574 22.7235 38.2301 22.3352 38.6165 22.0625C39.0066 21.786 39.4517 21.6477 39.9517 21.6477C40.0653 21.6477 40.1922 21.6534 40.3324 21.6648C40.4763 21.6723 40.5956 21.6856 40.6903 21.7045V23.5966C40.6032 23.5663 40.465 23.5398 40.2756 23.517C40.09 23.4905 39.91 23.4773 39.7358 23.4773C39.3608 23.4773 39.0237 23.5587 38.7244 23.7216C38.429 23.8807 38.196 24.1023 38.0256 24.3864C37.8551 24.6705 37.7699 24.9981 37.7699 25.3693V30.5H35.7131ZM48.9545 24.0795L47.0795 24.2841C47.0265 24.0947 46.9337 23.9167 46.8011 23.75C46.6723 23.5833 46.4981 23.4489 46.2784 23.3466C46.0587 23.2443 45.7898 23.1932 45.4716 23.1932C45.0436 23.1932 44.6837 23.286 44.392 23.4716C44.1042 23.6572 43.9621 23.8977 43.9659 24.1932C43.9621 24.447 44.0549 24.6534 44.2443 24.8125C44.4375 24.9716 44.7557 25.1023 45.1989 25.2045L46.6875 25.5227C47.5133 25.7008 48.1269 25.983 48.5284 26.3693C48.9337 26.7557 49.1383 27.2614 49.142 27.8864C49.1383 28.4356 48.9773 28.9205 48.6591 29.3409C48.3447 29.7576 47.9072 30.0833 47.3466 30.3182C46.786 30.553 46.142 30.6705 45.4148 30.6705C44.3466 30.6705 43.4867 30.447 42.8352 30C42.1837 29.5492 41.7955 28.9223 41.6705 28.1193L43.6761 27.9261C43.767 28.3201 43.9602 28.6174 44.2557 28.8182C44.5511 29.0189 44.9356 29.1193 45.4091 29.1193C45.8977 29.1193 46.2898 29.0189 46.5852 28.8182C46.8845 28.6174 47.0341 28.3693 47.0341 28.0739C47.0341 27.8239 46.9375 27.6174 46.7443 27.4545C46.5549 27.2917 46.2595 27.1667 45.858 27.0795L44.3693 26.767C43.5322 26.5928 42.9129 26.2992 42.5114 25.8864C42.1098 25.4697 41.911 24.9432 41.9148 24.3068C41.911 23.7689 42.0568 23.303 42.3523 22.9091C42.6515 22.5114 43.0663 22.2045 43.5966 21.9886C44.1307 21.7689 44.7462 21.6591 45.4432 21.6591C46.4659 21.6591 47.2708 21.8769 47.858 22.3125C48.4489 22.7481 48.8144 23.3371 48.9545 24.0795ZM54.6449 30.6705C53.7926 30.6705 53.054 30.483 52.429 30.108C51.804 29.733 51.3191 29.2083 50.9744 28.5341C50.6335 27.8598 50.4631 27.072 50.4631 26.1705C50.4631 25.2689 50.6335 24.4792 50.9744 23.8011C51.3191 23.1231 51.804 22.5966 52.429 22.2216C53.054 21.8466 53.7926 21.6591 54.6449 21.6591C55.4972 21.6591 56.2358 21.8466 56.8608 22.2216C57.4858 22.5966 57.9688 23.1231 58.3097 23.8011C58.6544 24.4792 58.8267 25.2689 58.8267 26.1705C58.8267 27.072 58.6544 27.8598 58.3097 28.5341C57.9688 29.2083 57.4858 29.733 56.8608 30.108C56.2358 30.483 55.4972 30.6705 54.6449 30.6705ZM54.6562 29.0227C55.1184 29.0227 55.5047 28.8958 55.8153 28.642C56.1259 28.3845 56.357 28.0398 56.5085 27.608C56.6638 27.1761 56.7415 26.6951 56.7415 26.1648C56.7415 25.6307 56.6638 25.1477 56.5085 24.7159C56.357 24.2803 56.1259 23.9337 55.8153 23.6761C55.5047 23.4186 55.1184 23.2898 54.6562 23.2898C54.1828 23.2898 53.7888 23.4186 53.4744 23.6761C53.1638 23.9337 52.9309 24.2803 52.7756 24.7159C52.6241 25.1477 52.5483 25.6307 52.5483 26.1648C52.5483 26.6951 52.6241 27.1761 52.7756 27.608C52.9309 28.0398 53.1638 28.3845 53.4744 28.642C53.7888 28.8958 54.1828 29.0227 54.6562 29.0227ZM62.6293 25.3864V30.5H60.5724V21.7727H62.5384V23.2557H62.6406C62.8414 22.767 63.1615 22.3788 63.6009 22.0909C64.044 21.803 64.5914 21.6591 65.2429 21.6591C65.8452 21.6591 66.3698 21.7879 66.8168 22.0455C67.2675 22.303 67.616 22.6761 67.8622 23.1648C68.1122 23.6534 68.2353 24.2462 68.2315 24.9432V30.5H66.1747V25.2614C66.1747 24.678 66.0232 24.2216 65.7202 23.892C65.4209 23.5625 65.0062 23.3977 64.4759 23.3977C64.116 23.3977 63.7959 23.4773 63.5156 23.6364C63.2391 23.7917 63.0213 24.017 62.8622 24.3125C62.7069 24.608 62.6293 24.9659 62.6293 25.3864ZM72.8338 30.6761C72.2808 30.6761 71.7827 30.5777 71.3395 30.3807C70.9001 30.1799 70.5516 29.8845 70.294 29.4943C70.0402 29.1042 69.9134 28.6231 69.9134 28.0511C69.9134 27.5587 70.0043 27.1515 70.1861 26.8295C70.3679 26.5076 70.616 26.25 70.9304 26.0568C71.2448 25.8636 71.599 25.7178 71.9929 25.6193C72.3906 25.517 72.8016 25.4432 73.2259 25.3977C73.7372 25.3447 74.152 25.2973 74.4702 25.2557C74.7884 25.2102 75.0194 25.142 75.1634 25.0511C75.3111 24.9564 75.3849 24.8106 75.3849 24.6136V24.5795C75.3849 24.1515 75.258 23.8201 75.0043 23.5852C74.7505 23.3504 74.3849 23.233 73.9077 23.233C73.4039 23.233 73.0043 23.3428 72.7088 23.5625C72.4171 23.7822 72.2202 24.0417 72.1179 24.3409L70.1974 24.0682C70.349 23.5379 70.599 23.0947 70.9474 22.7386C71.2959 22.3788 71.7221 22.1098 72.2259 21.9318C72.7296 21.75 73.2865 21.6591 73.8963 21.6591C74.3168 21.6591 74.7353 21.7083 75.152 21.8068C75.5687 21.9053 75.9493 22.0682 76.294 22.2955C76.6387 22.5189 76.9152 22.8239 77.1236 23.2102C77.3357 23.5966 77.4418 24.0795 77.4418 24.6591V30.5H75.4645V29.3011H75.3963C75.2713 29.5436 75.0952 29.7708 74.8679 29.983C74.6444 30.1913 74.3622 30.3598 74.0213 30.4886C73.6842 30.6136 73.2884 30.6761 72.8338 30.6761ZM73.3679 29.1648C73.7808 29.1648 74.1387 29.0833 74.4418 28.9205C74.7448 28.7538 74.9777 28.5341 75.1406 28.2614C75.3073 27.9886 75.3906 27.6913 75.3906 27.3693V26.3409C75.3262 26.3939 75.2164 26.4432 75.0611 26.4886C74.9096 26.5341 74.7391 26.5739 74.5497 26.608C74.3603 26.642 74.1728 26.6723 73.9872 26.6989C73.8016 26.7254 73.6406 26.7481 73.5043 26.767C73.1974 26.8087 72.9228 26.8769 72.6804 26.9716C72.438 27.0663 72.2467 27.1989 72.1065 27.3693C71.9664 27.536 71.8963 27.7519 71.8963 28.017C71.8963 28.3958 72.0346 28.6818 72.3111 28.875C72.5876 29.0682 72.9399 29.1648 73.3679 29.1648ZM81.5668 18.8636V30.5H79.5099V18.8636H81.5668ZM90.8892 30.6534C90.2036 30.6534 89.59 30.4773 89.0483 30.125C88.5066 29.7727 88.0786 29.2614 87.7642 28.5909C87.4498 27.9205 87.2926 27.1061 87.2926 26.1477C87.2926 25.178 87.4517 24.3598 87.7699 23.6932C88.0919 23.0227 88.5256 22.517 89.071 22.1761C89.6165 21.8314 90.2244 21.6591 90.8949 21.6591C91.4063 21.6591 91.8267 21.7462 92.1562 21.9205C92.4858 22.0909 92.7472 22.2973 92.9403 22.5398C93.1335 22.7784 93.2831 23.0038 93.3892 23.2159H93.4744V18.8636H95.5369V30.5H93.5142V29.125H93.3892C93.2831 29.3371 93.1297 29.5625 92.929 29.8011C92.7282 30.036 92.4631 30.2367 92.1335 30.4034C91.804 30.5701 91.3892 30.6534 90.8892 30.6534ZM91.4631 28.9659C91.8987 28.9659 92.2699 28.8485 92.5767 28.6136C92.8835 28.375 93.1165 28.0436 93.2756 27.6193C93.4347 27.1951 93.5142 26.7008 93.5142 26.1364C93.5142 25.572 93.4347 25.0814 93.2756 24.6648C93.1203 24.2481 92.8892 23.9242 92.5824 23.6932C92.2794 23.4621 91.9063 23.3466 91.4631 23.3466C91.0047 23.3466 90.6222 23.4659 90.3153 23.7045C90.0085 23.9432 89.7775 24.2727 89.6222 24.6932C89.4669 25.1136 89.3892 25.5947 89.3892 26.1364C89.3892 26.6818 89.4669 27.1686 89.6222 27.5966C89.7813 28.0208 90.0142 28.3561 90.321 28.6023C90.6316 28.8447 91.0123 28.9659 91.4631 28.9659ZM101.592 30.6705C100.717 30.6705 99.9616 30.4886 99.3253 30.125C98.6927 29.7576 98.206 29.2386 97.8651 28.5682C97.5241 27.8939 97.3537 27.1004 97.3537 26.1875C97.3537 25.2898 97.5241 24.5019 97.8651 23.8239C98.2098 23.142 98.6908 22.6117 99.3082 22.233C99.9257 21.8504 100.651 21.6591 101.484 21.6591C102.022 21.6591 102.53 21.7462 103.007 21.9205C103.488 22.0909 103.912 22.3561 104.28 22.7159C104.651 23.0758 104.943 23.5341 105.155 24.0909C105.367 24.6439 105.473 25.303 105.473 26.0682V26.6989H98.3196V25.3125H103.501C103.498 24.9186 103.412 24.5682 103.246 24.2614C103.079 23.9508 102.846 23.7064 102.547 23.5284C102.251 23.3504 101.907 23.2614 101.513 23.2614C101.092 23.2614 100.723 23.3636 100.405 23.5682C100.087 23.7689 99.8385 24.0341 99.6605 24.3636C99.4863 24.6894 99.3973 25.0473 99.3935 25.4375V26.6477C99.3935 27.1553 99.4863 27.5909 99.6719 27.9545C99.8575 28.3144 100.117 28.5909 100.45 28.7841C100.784 28.9735 101.174 29.0682 101.621 29.0682C101.92 29.0682 102.191 29.0265 102.433 28.9432C102.676 28.8561 102.886 28.7292 103.064 28.5625C103.242 28.3958 103.376 28.1894 103.467 27.9432L105.388 28.1591C105.267 28.6667 105.036 29.1098 104.695 29.4886C104.357 29.8636 103.926 30.1553 103.399 30.3636C102.873 30.5682 102.27 30.6705 101.592 30.6705ZM111.571 21.7727V23.3636H106.554V21.7727H111.571ZM107.793 19.6818H109.849V27.875C109.849 28.1515 109.891 28.3636 109.974 28.5114C110.062 28.6553 110.175 28.7538 110.315 28.8068C110.455 28.8598 110.611 28.8864 110.781 28.8864C110.91 28.8864 111.027 28.8769 111.134 28.858C111.243 28.839 111.327 28.822 111.384 28.8068L111.73 30.4148C111.62 30.4527 111.463 30.4943 111.259 30.5398C111.058 30.5852 110.812 30.6117 110.52 30.6193C110.005 30.6345 109.541 30.5568 109.128 30.3864C108.715 30.2121 108.387 29.9432 108.145 29.5795C107.906 29.2159 107.789 28.7614 107.793 28.2159V19.6818ZM115.803 30.6761C115.25 30.6761 114.751 30.5777 114.308 30.3807C113.869 30.1799 113.52 29.8845 113.263 29.4943C113.009 29.1042 112.882 28.6231 112.882 28.0511C112.882 27.5587 112.973 27.1515 113.155 26.8295C113.337 26.5076 113.585 26.25 113.899 26.0568C114.214 25.8636 114.568 25.7178 114.962 25.6193C115.359 25.517 115.77 25.4432 116.195 25.3977C116.706 25.3447 117.121 25.2973 117.439 25.2557C117.757 25.2102 117.988 25.142 118.132 25.0511C118.28 24.9564 118.354 24.8106 118.354 24.6136V24.5795C118.354 24.1515 118.227 23.8201 117.973 23.5852C117.719 23.3504 117.354 23.233 116.876 23.233C116.373 23.233 115.973 23.3428 115.678 23.5625C115.386 23.7822 115.189 24.0417 115.087 24.3409L113.166 24.0682C113.318 23.5379 113.568 23.0947 113.916 22.7386C114.265 22.3788 114.691 22.1098 115.195 21.9318C115.698 21.75 116.255 21.6591 116.865 21.6591C117.286 21.6591 117.704 21.7083 118.121 21.8068C118.537 21.9053 118.918 22.0682 119.263 22.2955C119.607 22.5189 119.884 22.8239 120.092 23.2102C120.304 23.5966 120.411 24.0795 120.411 24.6591V30.5H118.433V29.3011H118.365C118.24 29.5436 118.064 29.7708 117.837 29.983C117.613 30.1913 117.331 30.3598 116.99 30.4886C116.653 30.6136 116.257 30.6761 115.803 30.6761ZM116.337 29.1648C116.75 29.1648 117.107 29.0833 117.411 28.9205C117.714 28.7538 117.946 28.5341 118.109 28.2614C118.276 27.9886 118.359 27.6913 118.359 27.3693V26.3409C118.295 26.3939 118.185 26.4432 118.03 26.4886C117.878 26.5341 117.708 26.5739 117.518 26.608C117.329 26.642 117.142 26.6723 116.956 26.6989C116.77 26.7254 116.609 26.7481 116.473 26.767C116.166 26.8087 115.892 26.8769 115.649 26.9716C115.407 27.0663 115.215 27.1989 115.075 27.3693C114.935 27.536 114.865 27.7519 114.865 28.017C114.865 28.3958 115.003 28.6818 115.28 28.875C115.556 29.0682 115.909 29.1648 116.337 29.1648ZM122.479 30.5V21.7727H124.536V30.5H122.479ZM123.513 20.5341C123.187 20.5341 122.907 20.4261 122.672 20.2102C122.437 19.9905 122.32 19.7273 122.32 19.4205C122.32 19.1098 122.437 18.8466 122.672 18.6307C122.907 18.411 123.187 18.3011 123.513 18.3011C123.842 18.3011 124.123 18.411 124.354 18.6307C124.589 18.8466 124.706 19.1098 124.706 19.4205C124.706 19.7273 124.589 19.9905 124.354 20.2102C124.123 20.4261 123.842 20.5341 123.513 20.5341ZM128.707 18.8636V30.5H126.651V18.8636H128.707ZM137.72 24.0795L135.845 24.2841C135.792 24.0947 135.699 23.9167 135.567 23.75C135.438 23.5833 135.264 23.4489 135.044 23.3466C134.824 23.2443 134.555 23.1932 134.237 23.1932C133.809 23.1932 133.449 23.286 133.158 23.4716C132.87 23.6572 132.728 23.8977 132.732 24.1932C132.728 24.447 132.821 24.6534 133.01 24.8125C133.203 24.9716 133.521 25.1023 133.964 25.2045L135.453 25.5227C136.279 25.7008 136.893 25.983 137.294 26.3693C137.699 26.7557 137.904 27.2614 137.908 27.8864C137.904 28.4356 137.743 28.9205 137.425 29.3409C137.11 29.7576 136.673 30.0833 136.112 30.3182C135.552 30.553 134.908 30.6705 134.18 30.6705C133.112 30.6705 132.252 30.447 131.601 30C130.949 29.5492 130.561 28.9223 130.436 28.1193L132.442 27.9261C132.533 28.3201 132.726 28.6174 133.021 28.8182C133.317 29.0189 133.701 29.1193 134.175 29.1193C134.663 29.1193 135.055 29.0189 135.351 28.8182C135.65 28.6174 135.8 28.3693 135.8 28.0739C135.8 27.8239 135.703 27.6174 135.51 27.4545C135.321 27.2917 135.025 27.1667 134.624 27.0795L133.135 26.767C132.298 26.5928 131.679 26.2992 131.277 25.8864C130.875 25.4697 130.677 24.9432 130.68 24.3068C130.677 23.7689 130.822 23.303 131.118 22.9091C131.417 22.5114 131.832 22.2045 132.362 21.9886C132.896 21.7689 133.512 21.6591 134.209 21.6591C135.232 21.6591 136.036 21.8769 136.624 22.3125C137.214 22.7481 137.58 23.3371 137.72 24.0795Z" fill="#474A56"/>
<path d="M346 19L352 25L346 31" stroke="#474A56" stroke-width="2" stroke-linecap="round"/>
</svg>
