<svg width="376" height="50" viewBox="0 0 376 50" fill="none" xmlns="http://www.w3.org/2000/svg">
<rect width="376" height="50" rx="6" fill="#F8F8FA"/>
<path d="M16.1477 30.5V18.8636H20.5114C21.4053 18.8636 22.1553 19.0303 22.7614 19.3636C23.3712 19.697 23.8314 20.1553 24.142 20.7386C24.4564 21.3182 24.6136 21.9773 24.6136 22.7159C24.6136 23.4621 24.4564 24.125 24.142 24.7045C23.8277 25.2841 23.3636 25.7405 22.75 26.0739C22.1364 26.4034 21.3807 26.5682 20.483 26.5682H17.5909V24.8352H20.1989C20.7216 24.8352 21.1496 24.7443 21.483 24.5625C21.8163 24.3807 22.0625 24.1307 22.2216 23.8125C22.3845 23.4943 22.4659 23.1288 22.4659 22.7159C22.4659 22.303 22.3845 21.9394 22.2216 21.625C22.0625 21.3106 21.8144 21.0663 21.4773 20.892C21.1439 20.714 20.714 20.625 20.1875 20.625H18.2557V30.5H16.1477ZM28.7088 30.6761C28.1558 30.6761 27.6577 30.5777 27.2145 30.3807C26.7751 30.1799 26.4266 29.8845 26.169 29.4943C25.9152 29.1042 25.7884 28.6231 25.7884 28.0511C25.7884 27.5587 25.8793 27.1515 26.0611 26.8295C26.2429 26.5076 26.491 26.25 26.8054 26.0568C27.1198 25.8636 27.474 25.7178 27.8679 25.6193C28.2656 25.517 28.6766 25.4432 29.1009 25.3977C29.6122 25.3447 30.027 25.2973 30.3452 25.2557C30.6634 25.2102 30.8944 25.142 31.0384 25.0511C31.1861 24.9564 31.2599 24.8106 31.2599 24.6136V24.5795C31.2599 24.1515 31.133 23.8201 30.8793 23.5852C30.6255 23.3504 30.2599 23.233 29.7827 23.233C29.2789 23.233 28.8793 23.3428 28.5838 23.5625C28.2921 23.7822 28.0952 24.0417 27.9929 24.3409L26.0724 24.0682C26.224 23.5379 26.474 23.0947 26.8224 22.7386C27.1709 22.3788 27.5971 22.1098 28.1009 21.9318C28.6046 21.75 29.1615 21.6591 29.7713 21.6591C30.1918 21.6591 30.6103 21.7083 31.027 21.8068C31.4437 21.9053 31.8243 22.0682 32.169 22.2955C32.5137 22.5189 32.7902 22.8239 32.9986 23.2102C33.2107 23.5966 33.3168 24.0795 33.3168 24.6591V30.5H31.3395V29.3011H31.2713C31.1463 29.5436 30.9702 29.7708 30.7429 29.983C30.5194 30.1913 30.2372 30.3598 29.8963 30.4886C29.5592 30.6136 29.1634 30.6761 28.7088 30.6761ZM29.2429 29.1648C29.6558 29.1648 30.0137 29.0833 30.3168 28.9205C30.6198 28.7538 30.8527 28.5341 31.0156 28.2614C31.1823 27.9886 31.2656 27.6913 31.2656 27.3693V26.3409C31.2012 26.3939 31.0914 26.4432 30.9361 26.4886C30.7846 26.5341 30.6141 26.5739 30.4247 26.608C30.2353 26.642 30.0478 26.6723 29.8622 26.6989C29.6766 26.7254 29.5156 26.7481 29.3793 26.767C29.0724 26.8087 28.7978 26.8769 28.5554 26.9716C28.313 27.0663 28.1217 27.1989 27.9815 27.3693C27.8414 27.536 27.7713 27.7519 27.7713 28.017C27.7713 28.3958 27.9096 28.6818 28.1861 28.875C28.4626 29.0682 28.8149 29.1648 29.2429 29.1648ZM42.2827 24.0795L40.4077 24.2841C40.3546 24.0947 40.2618 23.9167 40.1293 23.75C40.0005 23.5833 39.8262 23.4489 39.6065 23.3466C39.3868 23.2443 39.1179 23.1932 38.7997 23.1932C38.3717 23.1932 38.0118 23.286 37.7202 23.4716C37.4323 23.6572 37.2902 23.8977 37.294 24.1932C37.2902 24.447 37.383 24.6534 37.5724 24.8125C37.7656 24.9716 38.0838 25.1023 38.527 25.2045L40.0156 25.5227C40.8414 25.7008 41.455 25.983 41.8565 26.3693C42.2618 26.7557 42.4664 27.2614 42.4702 27.8864C42.4664 28.4356 42.3054 28.9205 41.9872 29.3409C41.6728 29.7576 41.2353 30.0833 40.6747 30.3182C40.1141 30.553 39.4702 30.6705 38.7429 30.6705C37.6747 30.6705 36.8149 30.447 36.1634 30C35.5118 29.5492 35.1236 28.9223 34.9986 28.1193L37.0043 27.9261C37.0952 28.3201 37.2884 28.6174 37.5838 28.8182C37.8793 29.0189 38.2637 29.1193 38.7372 29.1193C39.2259 29.1193 39.6179 29.0189 39.9134 28.8182C40.2126 28.6174 40.3622 28.3693 40.3622 28.0739C40.3622 27.8239 40.2656 27.6174 40.0724 27.4545C39.883 27.2917 39.5876 27.1667 39.1861 27.0795L37.6974 26.767C36.8603 26.5928 36.241 26.2992 35.8395 25.8864C35.438 25.4697 35.2391 24.9432 35.2429 24.3068C35.2391 23.7689 35.3849 23.303 35.6804 22.9091C35.9796 22.5114 36.3944 22.2045 36.9247 21.9886C37.4588 21.7689 38.0743 21.6591 38.7713 21.6591C39.794 21.6591 40.599 21.8769 41.1861 22.3125C41.777 22.7481 42.1425 23.3371 42.2827 24.0795ZM51.0639 24.0795L49.1889 24.2841C49.1359 24.0947 49.0431 23.9167 48.9105 23.75C48.7817 23.5833 48.6075 23.4489 48.3878 23.3466C48.1681 23.2443 47.8991 23.1932 47.581 23.1932C47.1529 23.1932 46.7931 23.286 46.5014 23.4716C46.2135 23.6572 46.0715 23.8977 46.0753 24.1932C46.0715 24.447 46.1643 24.6534 46.3537 24.8125C46.5469 24.9716 46.8651 25.1023 47.3082 25.2045L48.7969 25.5227C49.6226 25.7008 50.2363 25.983 50.6378 26.3693C51.0431 26.7557 51.2476 27.2614 51.2514 27.8864C51.2476 28.4356 51.0866 28.9205 50.7685 29.3409C50.4541 29.7576 50.0166 30.0833 49.456 30.3182C48.8954 30.553 48.2514 30.6705 47.5241 30.6705C46.456 30.6705 45.5961 30.447 44.9446 30C44.2931 29.5492 43.9048 28.9223 43.7798 28.1193L45.7855 27.9261C45.8764 28.3201 46.0696 28.6174 46.3651 28.8182C46.6605 29.0189 47.045 29.1193 47.5185 29.1193C48.0071 29.1193 48.3991 29.0189 48.6946 28.8182C48.9938 28.6174 49.1435 28.3693 49.1435 28.0739C49.1435 27.8239 49.0469 27.6174 48.8537 27.4545C48.6643 27.2917 48.3688 27.1667 47.9673 27.0795L46.4787 26.767C45.6416 26.5928 45.0223 26.2992 44.6207 25.8864C44.2192 25.4697 44.0204 24.9432 44.0241 24.3068C44.0204 23.7689 44.1662 23.303 44.4616 22.9091C44.7609 22.5114 45.1757 22.2045 45.706 21.9886C46.2401 21.7689 46.8556 21.6591 47.5526 21.6591C48.5753 21.6591 49.3802 21.8769 49.9673 22.3125C50.5582 22.7481 50.9238 23.3371 51.0639 24.0795ZM54.7486 30.5L52.2827 21.7727H54.3793L55.9134 27.9091H55.9929L57.5611 21.7727H59.6349L61.2031 27.875H61.2884L62.7997 21.7727H64.902L62.4304 30.5H60.2884L58.652 24.6023H58.5327L56.8963 30.5H54.7486ZM69.8949 30.6705C69.0426 30.6705 68.304 30.483 67.679 30.108C67.054 29.733 66.5691 29.2083 66.2244 28.5341C65.8835 27.8598 65.7131 27.072 65.7131 26.1705C65.7131 25.2689 65.8835 24.4792 66.2244 23.8011C66.5691 23.1231 67.054 22.5966 67.679 22.2216C68.304 21.8466 69.0426 21.6591 69.8949 21.6591C70.7472 21.6591 71.4858 21.8466 72.1108 22.2216C72.7358 22.5966 73.2188 23.1231 73.5597 23.8011C73.9044 24.4792 74.0767 25.2689 74.0767 26.1705C74.0767 27.072 73.9044 27.8598 73.5597 28.5341C73.2188 29.2083 72.7358 29.733 72.1108 30.108C71.4858 30.483 70.7472 30.6705 69.8949 30.6705ZM69.9062 29.0227C70.3684 29.0227 70.7547 28.8958 71.0653 28.642C71.3759 28.3845 71.607 28.0398 71.7585 27.608C71.9138 27.1761 71.9915 26.6951 71.9915 26.1648C71.9915 25.6307 71.9138 25.1477 71.7585 24.7159C71.607 24.2803 71.3759 23.9337 71.0653 23.6761C70.7547 23.4186 70.3684 23.2898 69.9062 23.2898C69.4328 23.2898 69.0388 23.4186 68.7244 23.6761C68.4138 23.9337 68.1809 24.2803 68.0256 24.7159C67.8741 25.1477 67.7983 25.6307 67.7983 26.1648C67.7983 26.6951 67.8741 27.1761 68.0256 27.608C68.1809 28.0398 68.4138 28.3845 68.7244 28.642C69.0388 28.8958 69.4328 29.0227 69.9062 29.0227ZM75.8224 30.5V21.7727H77.8168V23.2273H77.9077C78.0668 22.7235 78.3395 22.3352 78.7259 22.0625C79.116 21.786 79.5611 21.6477 80.0611 21.6477C80.1747 21.6477 80.3016 21.6534 80.4418 21.6648C80.5857 21.6723 80.705 21.6856 80.7997 21.7045V23.5966C80.7126 23.5663 80.5743 23.5398 80.3849 23.517C80.1993 23.4905 80.0194 23.4773 79.8452 23.4773C79.4702 23.4773 79.133 23.5587 78.8338 23.7216C78.5384 23.8807 78.3054 24.1023 78.1349 24.3864C77.9645 24.6705 77.8793 24.9981 77.8793 25.3693V30.5H75.8224ZM85.0455 30.6534C84.3598 30.6534 83.7462 30.4773 83.2045 30.125C82.6629 29.7727 82.2348 29.2614 81.9205 28.5909C81.6061 27.9205 81.4489 27.1061 81.4489 26.1477C81.4489 25.178 81.608 24.3598 81.9261 23.6932C82.2481 23.0227 82.6818 22.517 83.2273 22.1761C83.7727 21.8314 84.3807 21.6591 85.0511 21.6591C85.5625 21.6591 85.983 21.7462 86.3125 21.9205C86.642 22.0909 86.9034 22.2973 87.0966 22.5398C87.2898 22.7784 87.4394 23.0038 87.5455 23.2159H87.6307V18.8636H89.6932V30.5H87.6705V29.125H87.5455C87.4394 29.3371 87.286 29.5625 87.0852 29.8011C86.8845 30.036 86.6193 30.2367 86.2898 30.4034C85.9602 30.5701 85.5455 30.6534 85.0455 30.6534ZM85.6193 28.9659C86.0549 28.9659 86.4261 28.8485 86.733 28.6136C87.0398 28.375 87.2727 28.0436 87.4318 27.6193C87.5909 27.1951 87.6705 26.7008 87.6705 26.1364C87.6705 25.572 87.5909 25.0814 87.4318 24.6648C87.2765 24.2481 87.0455 23.9242 86.7386 23.6932C86.4356 23.4621 86.0625 23.3466 85.6193 23.3466C85.161 23.3466 84.7784 23.4659 84.4716 23.7045C84.1648 23.9432 83.9337 24.2727 83.7784 24.6932C83.6231 25.1136 83.5455 25.5947 83.5455 26.1364C83.5455 26.6818 83.6231 27.1686 83.7784 27.5966C83.9375 28.0208 84.1705 28.3561 84.4773 28.6023C84.7879 28.8447 85.1686 28.9659 85.6193 28.9659ZM98.7827 24.0795L96.9077 24.2841C96.8546 24.0947 96.7618 23.9167 96.6293 23.75C96.5005 23.5833 96.3262 23.4489 96.1065 23.3466C95.8868 23.2443 95.6179 23.1932 95.2997 23.1932C94.8717 23.1932 94.5118 23.286 94.2202 23.4716C93.9323 23.6572 93.7902 23.8977 93.794 24.1932C93.7902 24.447 93.883 24.6534 94.0724 24.8125C94.2656 24.9716 94.5838 25.1023 95.027 25.2045L96.5156 25.5227C97.3414 25.7008 97.955 25.983 98.3565 26.3693C98.7618 26.7557 98.9664 27.2614 98.9702 27.8864C98.9664 28.4356 98.8054 28.9205 98.4872 29.3409C98.1728 29.7576 97.7353 30.0833 97.1747 30.3182C96.6141 30.553 95.9702 30.6705 95.2429 30.6705C94.1747 30.6705 93.3149 30.447 92.6634 30C92.0118 29.5492 91.6236 28.9223 91.4986 28.1193L93.5043 27.9261C93.5952 28.3201 93.7884 28.6174 94.0838 28.8182C94.3793 29.0189 94.7637 29.1193 95.2372 29.1193C95.7259 29.1193 96.1179 29.0189 96.4134 28.8182C96.7126 28.6174 96.8622 28.3693 96.8622 28.0739C96.8622 27.8239 96.7656 27.6174 96.5724 27.4545C96.383 27.2917 96.0876 27.1667 95.6861 27.0795L94.1974 26.767C93.3603 26.5928 92.741 26.2992 92.3395 25.8864C91.938 25.4697 91.7391 24.9432 91.7429 24.3068C91.7391 23.7689 91.8849 23.303 92.1804 22.9091C92.4796 22.5114 92.8944 22.2045 93.4247 21.9886C93.9588 21.7689 94.5743 21.6591 95.2713 21.6591C96.294 21.6591 97.099 21.8769 97.6861 22.3125C98.277 22.7481 98.6425 23.3371 98.7827 24.0795Z" fill="#474A56"/>
<path d="M346 19L352 25L346 31" stroke="#474A56" stroke-width="2" stroke-linecap="round"/>
</svg>
