<svg width="30" height="30" viewBox="0 0 30 30" fill="none" xmlns="http://www.w3.org/2000/svg">
<path d="M16.0545 7.74939H6.83734C4.81145 7.74939 3.15283 9.40801 3.15283 11.4339V24.8924C3.15283 26.6103 4.38495 27.3448 5.88956 26.5037L10.5455 23.9091C11.0431 23.6366 11.8487 23.6366 12.3345 23.9091L16.9905 26.5037C18.5069 27.333 19.739 26.6103 19.739 24.8924V11.4339C19.739 9.40801 18.0804 7.74939 16.0545 7.74939Z" fill="#D5DFE6"/>
<path d="M26.8472 6.83722V20.2957C26.8472 22.0136 25.6151 22.7363 24.1105 21.907L21.824 20.6275C21.6344 20.5208 21.516 20.3194 21.516 20.1062V11.434C21.516 8.42475 19.0636 5.97237 16.0544 5.97237H11.2325C10.7942 5.97237 10.4861 5.51032 10.6875 5.13121C11.3036 3.95833 12.5357 3.15271 13.9455 3.15271H23.1627C25.1886 3.15271 26.8472 4.81133 26.8472 6.83722Z" fill="#D5DFE6"/>
</svg>
