<svg width="30" height="30" viewBox="0 0 30 30" fill="none" xmlns="http://www.w3.org/2000/svg">
<path d="M20.2375 2.5H9.7625C5.2125 2.5 2.5 5.2125 2.5 9.7625V20.225C2.5 24.7875 5.2125 27.5 9.7625 27.5H20.225C24.775 27.5 27.4875 24.7875 27.4875 20.2375V9.7625C27.5 5.2125 24.7875 2.5 20.2375 2.5ZM9.5875 6.875C9.5875 6.3625 10.0125 5.9375 10.525 5.9375C11.0375 5.9375 11.4625 6.3625 11.4625 6.875V11.75C11.4625 12.2625 11.0375 12.6875 10.525 12.6875C10.0125 12.6875 9.5875 12.2625 9.5875 11.75V6.875ZM11.8171 20.576C11.6113 20.6608 11.4625 20.8532 11.4625 21.0758V23.125C11.4625 23.6375 11.0375 24.0625 10.525 24.0625C10.0125 24.0625 9.5875 23.6375 9.5875 23.125V21.0758C9.5875 20.8532 9.43866 20.6608 9.23289 20.576C7.9936 20.0647 7.125 18.8557 7.125 17.4375C7.125 15.5625 8.65 14.025 10.525 14.025C12.4 14.025 13.9375 15.55 13.9375 17.4375C13.9375 18.8558 13.0583 20.0648 11.8171 20.576ZM20.4125 23.125C20.4125 23.6375 19.9875 24.0625 19.475 24.0625C18.9625 24.0625 18.5375 23.6375 18.5375 23.125V18.25C18.5375 17.7375 18.9625 17.3125 19.475 17.3125C19.9875 17.3125 20.4125 17.7375 20.4125 18.25V23.125ZM19.475 15.9625C17.6 15.9625 16.0625 14.4375 16.0625 12.55C16.0625 11.1317 16.9417 9.92268 18.1829 9.41145C18.3887 9.32668 18.5375 9.13431 18.5375 8.91171V6.875C18.5375 6.3625 18.9625 5.9375 19.475 5.9375C19.9875 5.9375 20.4125 6.3625 20.4125 6.875V8.92421C20.4125 9.14681 20.5613 9.33915 20.7671 9.42405C22.0064 9.93533 22.875 11.1443 22.875 12.5625C22.875 14.4375 21.35 15.9625 19.475 15.9625Z" fill="#822B23" fill-opacity="0.13"/>
</svg>
