<svg width="24" height="24" viewBox="0 0 24 24" fill="none" xmlns="http://www.w3.org/2000/svg">
<path d="M16 12.69V18.08C16 20.42 14.44 21.97 12.11 21.97H5.89C3.56 21.97 2 20.42 2 18.08V10.31C2 7.96998 3.56 6.41998 5.89 6.41998H9.72C10.75 6.41998 11.74 6.82998 12.47 7.55998L14.86 9.93998C15.59 10.67 16 11.66 16 12.69Z" fill="#822B23"/>
<path d="M21.9995 8.24997V13.64C21.9995 15.97 20.4395 17.53 18.1095 17.53H16.9995V12.69C16.9995 11.4 16.4795 10.14 15.5695 9.22997L13.1795 6.84997C12.2695 5.93997 11.0095 5.41997 9.71953 5.41997H8.01953C8.19953 3.33997 9.70953 1.96997 11.8895 1.96997H15.7195C16.7495 1.96997 17.7395 2.37997 18.4695 3.10997L20.8595 5.49997C21.5895 6.22997 21.9995 7.21997 21.9995 8.24997Z" fill="#822B23"/>
</svg>
