<svg width="61" height="61" viewBox="0 0 61 61" fill="none" xmlns="http://www.w3.org/2000/svg">
<path d="M51.2115 8.78853C45.5539 3.1126 38.0104 0 30.0092 0C21.9896 0 14.4461 3.1126 8.78853 8.78853C3.1126 14.4461 0 21.9896 0 30.0092C0 38.0287 3.1126 45.5539 8.78853 51.2298C14.4461 56.8874 21.9896 60.0183 30.0092 60.0183C38.0287 60.0183 45.5539 56.9057 51.2298 51.2298C56.8874 45.5722 60.0183 38.0287 60.0183 30.0092C60 21.9896 56.8874 14.4461 51.2115 8.78853Z" fill="#3CAF47"/>
<path d="M26.0725 35.4472L20.1768 29.5515C19.0416 28.4164 17.1741 28.4164 16.0389 29.5515C14.9037 30.6867 14.9037 32.5543 16.0389 33.6895L24.0035 41.6541C25.1387 42.7893 27.0062 42.7893 28.1414 41.6541L44.7115 25.084C45.8466 23.9489 45.8466 22.0813 44.7115 20.9461C43.5763 19.8109 41.7087 19.8109 40.5735 20.9461L26.0725 35.4472Z" fill="white"/>
</svg>
