<svg width="14" height="15" viewBox="0 0 14 15" fill="none" xmlns="http://www.w3.org/2000/svg">
<path d="M3.96633 0.518555L3.7551 0.9375H0.938776C0.419515 0.9375 0 1.35645 0 1.875C0 2.39355 0.419515 2.8125 0.938776 2.8125H12.2041C12.7233 2.8125 13.1429 2.39355 13.1429 1.875C13.1429 1.35645 12.7233 0.9375 12.2041 0.9375H9.38776L9.17653 0.518555C9.01811 0.199219 8.69248 0 8.3375 0H4.80536C4.45038 0 4.12474 0.199219 3.96633 0.518555ZM12.2041 3.75H0.938776L1.56071 13.6816C1.60765 14.4229 2.22372 15 2.96594 15H10.1769C10.9191 15 11.5352 14.4229 11.5821 13.6816L12.2041 3.75Z" fill="#EE335E"/>
</svg>
