<svg width="36" height="36" viewBox="0 0 36 36" fill="none" xmlns="http://www.w3.org/2000/svg">
<path d="M10.5 13.0001H12.1667M12.1667 13.0001H25.5M12.1667 13.0001V24.6667C12.1667 25.1088 12.3423 25.5327 12.6548 25.8453C12.9674 26.1578 13.3913 26.3334 13.8333 26.3334H22.1667C22.6087 26.3334 23.0326 26.1578 23.3452 25.8453C23.6577 25.5327 23.8333 25.1088 23.8333 24.6667V13.0001H12.1667ZM14.6667 13.0001V11.3334C14.6667 10.8914 14.8423 10.4675 15.1548 10.1549C15.4674 9.84234 15.8913 9.66675 16.3333 9.66675H19.6667C20.1087 9.66675 20.5326 9.84234 20.8452 10.1549C21.1577 10.4675 21.3333 10.8914 21.3333 11.3334V13.0001M16.3333 17.1667V22.1667M19.6667 17.1667V22.1667" stroke="#667085" stroke-width="1.66667" stroke-linecap="round" stroke-linejoin="round"/>
</svg>
