<svg width="45" height="45" viewBox="0 0 45 45" fill="none" xmlns="http://www.w3.org/2000/svg">
<path fill-rule="evenodd" clip-rule="evenodd" d="M22.3438 0C10.0031 0 0 10.0031 0 22.3438C0 34.6844 10.0031 44.6875 22.3438 44.6875C34.6844 44.6875 44.6875 34.6844 44.6875 22.3438C44.6875 10.0031 34.6844 0 22.3438 0ZM24.0625 15.4688C24.0625 15.0129 23.8814 14.5757 23.5591 14.2534C23.2368 13.9311 22.7996 13.75 22.3438 13.75C21.8879 13.75 21.4507 13.9311 21.1284 14.2534C20.8061 14.5757 20.625 15.0129 20.625 15.4688V20.625H15.4688C15.0129 20.625 14.5757 20.8061 14.2534 21.1284C13.9311 21.4507 13.75 21.8879 13.75 22.3438C13.75 22.7996 13.9311 23.2368 14.2534 23.5591C14.5757 23.8814 15.0129 24.0625 15.4688 24.0625H20.625V29.2188C20.625 29.6746 20.8061 30.1118 21.1284 30.4341C21.4507 30.7564 21.8879 30.9375 22.3438 30.9375C22.7996 30.9375 23.2368 30.7564 23.5591 30.4341C23.8814 30.1118 24.0625 29.6746 24.0625 29.2188V24.0625H29.2188C29.6746 24.0625 30.1118 23.8814 30.4341 23.5591C30.7564 23.2368 30.9375 22.7996 30.9375 22.3438C30.9375 21.8879 30.7564 21.4507 30.4341 21.1284C30.1118 20.8061 29.6746 20.625 29.2188 20.625H24.0625V15.4688Z" fill="#822B23"/>
</svg>
