<svg width="208" height="212" viewBox="0 0 208 212" fill="none" xmlns="http://www.w3.org/2000/svg">
<circle cx="104" cy="104" r="104" fill="#D9D9D9" fill-opacity="0.6"/>
<circle cx="104" cy="104" r="90" fill="#D9D9D9"/>
<path d="M91.8125 97.9065H116.188C117.534 97.9065 118.625 96.8157 118.625 95.469V93.0315C118.625 91.6848 117.534 90.5941 116.188 90.5941H91.8125C90.4658 90.5941 89.375 91.6848 89.375 93.0315V95.469C89.375 96.8157 90.4658 97.9065 91.8125 97.9065ZM89.375 110.094C89.375 111.441 90.4658 112.531 91.8125 112.531H116.188C117.534 112.531 118.625 111.441 118.625 110.094V107.656C118.625 106.31 117.534 105.219 116.188 105.219H91.8125C90.4658 105.219 89.375 106.31 89.375 107.656V110.094ZM104 128.547C101.499 128.547 98.997 127.776 96.8612 126.233L65 103.217V135.688C65 139.726 68.2739 143 72.3125 143H135.688C139.726 143 143 139.726 143 135.688V103.217L111.139 126.233C109.003 127.775 106.501 128.547 104 128.547ZM140.198 89.8247C138.85 88.7675 137.572 87.7727 135.688 86.3498V79.6254C135.688 75.5868 132.414 72.3129 128.375 72.3129H116.561C116.098 71.9778 115.666 71.6639 115.184 71.3136C112.623 69.4443 107.534 64.9472 104 65.0005C100.466 64.9472 95.3789 69.4443 92.8164 71.3136C92.3335 71.6639 91.9024 71.9778 91.4393 72.3129H79.625C75.5864 72.3129 72.3125 75.5868 72.3125 79.6254V86.3498C70.428 87.7712 69.1498 88.7675 67.8016 89.8247C66.9289 90.5086 66.2232 91.3821 65.7378 92.3789C65.2525 93.3758 65.0002 94.47 65 95.5787V97.2012L79.625 107.766V79.6254H128.375V107.766L143 97.2012V95.5787C143 93.3332 141.967 91.2111 140.198 89.8247Z" fill="#BDBDBD"/>
<line x1="16" y1="209.5" x2="193" y2="209.5" stroke="#D9D9D9" stroke-width="5"/>
</svg>
