<svg width="24" height="24" viewBox="0 0 24 24" fill="none" xmlns="http://www.w3.org/2000/svg">
<path d="M11.9402 2.20995L9.5302 7.81995H7.1202C6.7202 7.81995 6.3302 7.84995 5.9502 7.92995L6.9502 5.52995L6.9902 5.43995L7.0502 5.27995C7.0802 5.20995 7.1002 5.14995 7.1302 5.09995C8.2902 2.40995 9.5902 1.56995 11.9402 2.20995Z" fill="#822B23"/>
<path d="M18.7301 8.09002L18.7101 8.08002C18.1101 7.91002 17.5001 7.82002 16.8801 7.82002H10.6201L12.8701 2.59002L12.9001 2.52002C13.0401 2.57002 13.1901 2.64002 13.3401 2.69002L15.5501 3.62002C16.7801 4.13002 17.6401 4.66002 18.1701 5.30002C18.2601 5.42002 18.3401 5.53002 18.4201 5.66002C18.5101 5.80002 18.5801 5.94002 18.6201 6.09002C18.6601 6.18002 18.6901 6.26002 18.7101 6.35002C18.8601 6.86002 18.8701 7.44002 18.7301 8.09002Z" fill="#822B23"/>
<path d="M18.2902 9.51995C17.8402 9.38995 17.3702 9.31995 16.8802 9.31995H7.12023C6.44023 9.31995 5.80023 9.44995 5.20023 9.70995C3.46023 10.4599 2.24023 12.1899 2.24023 14.1999V16.1499C2.24023 16.3899 2.26023 16.6199 2.29023 16.8599C2.51023 20.0399 4.21023 21.7399 7.39023 21.9499C7.62023 21.9799 7.85023 21.9999 8.10023 21.9999H15.9002C19.6002 21.9999 21.5502 20.2399 21.7402 16.7399C21.7502 16.5499 21.7602 16.3499 21.7602 16.1499V14.1999C21.7602 11.9899 20.2902 10.1299 18.2902 9.51995ZM14.5002 16.7499H9.50023C9.09023 16.7499 8.75023 16.4099 8.75023 15.9999C8.75023 15.5899 9.09023 15.2499 9.50023 15.2499H14.5002C14.9102 15.2499 15.2502 15.5899 15.2502 15.9999C15.2502 16.4099 14.9102 16.7499 14.5002 16.7499Z" fill="#822B23"/>
</svg>
